<svg xmlns="http://www.w3.org/2000/svg" xmlns:xlink="http://www.w3.org/1999/xlink" width="130" zoomAndPan="magnify" viewBox="0 0 97.5 37.5" height="50" preserveAspectRatio="xMidYMid meet" version="1.0"><defs><clipPath id="5e1cf79a99"><path d="M 4.363281 5.136719 L 55.804688 5.136719 L 55.804688 37.007812 L 4.363281 37.007812 Z M 4.363281 5.136719 " clip-rule="nonzero"/></clipPath><clipPath id="b5d1112e50"><path d="M 39 5.078125 L 82 5.078125 L 82 37.007812 L 39 37.007812 Z M 39 5.078125 " clip-rule="nonzero"/></clipPath><clipPath id="4e5de890c9"><path d="M 67 5.078125 L 96.613281 5.078125 L 96.613281 37.007812 L 67 37.007812 Z M 67 5.078125 " clip-rule="nonzero"/></clipPath></defs><g clip-path="url(#5e1cf79a99)"><path stroke-linecap="butt" transform="matrix(0.73789, 0, 0, 0.742188, 8.940083, 17.752347)" fill="none" stroke-linejoin="miter" d="M 4.633876 10.891569 C 3.765691 10.891569 3.066908 10.717885 2.521646 10.370517 C 1.976384 10.023148 1.584642 9.57578 1.335833 9.028412 C 1.087024 8.475781 0.959972 7.912623 0.959972 7.333676 C 0.959972 6.749466 1.08173 6.196835 1.314658 5.670519 C 1.547585 5.13894 1.870508 4.707362 2.299306 4.375783 C 2.728105 4.038941 3.220429 3.87052 3.781573 3.87052 C 3.993325 3.87052 4.099201 3.95473 4.099201 4.128415 C 4.099201 4.596835 4.300366 4.975783 4.707989 5.265256 C 5.110319 5.55473 5.602643 5.702098 6.179668 5.702098 C 6.841394 5.702098 7.545471 5.412624 8.297192 4.844204 C 9.048913 4.27052 9.668288 3.338941 10.165906 2.070521 C 10.35119 1.591574 10.531179 1.091574 10.72705 0.575785 C 10.917627 0.0599956 11.108204 -0.424215 11.293488 -0.876846 C 11.431127 -1.245267 11.61641 -1.508425 11.849338 -1.661056 C 12.082265 -1.818951 12.352249 -1.892635 12.664584 -1.892635 C 13.119852 -1.892635 13.400424 -1.792635 13.522181 -1.587372 C 13.643939 -1.382109 13.670408 -1.103162 13.596294 -0.75053 C 13.527475 -0.408425 13.39513 0.0126272 13.193965 0.512627 C 12.998094 1.012627 12.786342 1.533679 12.558708 2.081047 C 12.331074 2.623152 12.140497 3.138941 11.976389 3.628415 C 11.817575 4.117888 11.732874 4.523151 11.732874 4.85473 C 11.732874 5.117888 11.817575 5.349467 11.976389 5.53894 C 12.140497 5.728414 12.3946 5.823151 12.754579 5.823151 C 13.21514 5.823151 13.643939 5.665256 14.025093 5.349467 C 14.406247 5.033677 14.739757 4.612625 15.036211 4.086309 C 15.322076 3.559994 15.544416 2.981047 15.697937 2.349468 C 15.856751 1.707363 15.936158 1.081048 15.936158 0.459995 C 15.936158 -0.150531 15.824988 -0.703162 15.602648 -1.213688 C 15.380308 -1.724214 15.004448 -2.13474 14.453892 -2.455793 C 13.913923 -2.776845 13.156908 -2.93474 12.182847 -2.93474 C 11.510534 -2.93474 10.875277 -2.824213 10.271782 -2.603161 C 9.662994 -2.387372 9.17067 -2.05053 8.784222 -1.592635 C 8.408362 -1.145267 8.217785 -0.55053 8.217785 0.186311 C 8.217785 0.496837 8.291898 0.754732 8.450712 0.954732 C 8.598939 1.159995 8.79481 1.259995 9.022443 1.259995 C 9.181258 1.281048 9.218314 1.428416 9.138907 1.712626 C 9.0595 1.991574 8.890098 2.312626 8.625408 2.675784 C 8.371305 3.033678 8.032501 3.344204 7.619584 3.617888 C 7.211961 3.886309 6.751399 4.017888 6.243194 4.017888 C 5.660875 4.017888 5.173844 3.875783 4.776809 3.58631 C 4.385067 3.296836 4.088614 2.912626 3.887449 2.438942 C 3.691578 1.970521 3.596289 1.465258 3.596289 0.923153 C 3.596289 0.0231535 3.79216 -0.834741 4.199783 -1.63474 C 4.602113 -2.445266 5.173844 -3.155792 5.90439 -3.776845 C 6.640229 -4.40316 7.513708 -4.892633 8.519532 -5.245265 C 9.530649 -5.592633 10.642349 -5.77158 11.865219 -5.77158 C 13.21514 -5.77158 14.358603 -5.592633 15.28502 -5.234739 C 16.206142 -4.871581 16.952569 -4.376844 17.508419 -3.745266 C 18.069563 -3.11895 18.471893 -2.397898 18.720702 -1.587372 C 18.964217 -0.771583 19.085974 0.0810482 19.085974 0.986311 C 19.085974 2.117889 18.916573 3.233678 18.583063 4.333678 C 18.244259 5.428414 17.783697 6.417887 17.190791 7.302097 C 16.608472 8.181044 15.936158 8.89157 15.163262 9.423149 C 14.400953 9.949464 13.601588 10.212622 12.754579 10.212622 C 11.875807 10.212622 11.187611 9.949464 10.674112 9.423149 C 10.165906 8.89157 9.885334 8.186307 9.821809 7.312623 C 9.234196 8.412623 8.487769 9.286307 7.598409 9.928412 C 6.709049 10.570516 5.719107 10.891569 4.633876 10.891569 Z M 21.30408 10.002096 C 20.584122 10.002096 20.03886 9.702096 19.673587 9.112622 C 19.303021 8.517886 19.117737 7.749465 19.117737 6.802097 C 19.117737 6.207361 19.197144 5.575782 19.345371 4.902098 C 19.493598 4.233678 19.710644 3.565257 20.001803 2.917889 C 20.292963 2.270521 20.658236 1.681047 21.092328 1.149469 C 21.531714 0.61789 22.03992 0.191574 22.622239 -0.124215 C 23.199264 -0.445267 23.855696 -0.603162 24.591536 -0.603162 C 25.015041 -0.603162 25.34855 -0.561057 25.57089 -0.482109 C 25.809112 -0.408425 25.989101 -0.313688 26.110859 -0.197899 C 26.232617 -0.0821096 26.333199 0.0126272 26.4179 0.0915745 C 26.497307 0.165259 26.613771 0.207364 26.756704 0.207364 C 26.994925 0.207364 27.190796 0.138943 27.339023 0.00210087 C 27.481956 -0.129478 27.646064 -0.26632 27.831347 -0.397899 C 28.01663 -0.534741 28.276027 -0.603162 28.598949 -0.603162 C 28.879521 -0.603162 29.075392 -0.529478 29.186562 -0.387373 C 29.292438 -0.250531 29.340082 -0.0557938 29.340082 0.186311 C 29.340082 0.575785 29.234206 0.970521 29.011866 1.359995 C 28.79482 1.749468 28.561893 2.254731 28.328965 2.875784 C 27.97428 3.649467 27.841935 4.249467 27.931929 4.659993 C 28.021924 5.070519 28.30779 5.275782 28.768351 5.275782 C 29.138918 5.275782 29.451252 5.181046 29.721237 4.991572 C 29.991221 4.796835 30.234736 4.533677 30.446489 4.196836 C 30.557659 4.023151 30.700591 3.959994 30.875287 4.007362 C 31.055277 4.05473 31.198209 4.159993 31.319967 4.296835 C 31.441725 4.438941 31.468194 4.581046 31.399374 4.723151 C 31.145271 5.217888 30.869993 5.765256 30.578834 6.370519 C 30.287674 6.970518 29.970046 7.544202 29.610067 8.096834 C 29.260675 8.644202 28.858346 9.102096 28.403078 9.465254 C 27.953105 9.823148 27.429017 10.002096 26.836111 10.002096 C 26.105565 10.002096 25.581478 9.702096 25.279731 9.112622 C 24.977984 8.517886 24.887989 7.781044 25.015041 6.90736 L 24.935633 6.90736 C 24.512129 7.770518 23.982748 8.502096 23.363372 9.102096 C 22.738703 9.702096 22.055801 10.002096 21.30408 10.002096 Z M 23.426898 5.612624 C 23.792171 5.612624 24.115093 5.507361 24.390371 5.296835 C 24.665649 5.086309 24.882695 4.823151 25.036216 4.523151 C 25.19503 4.217888 25.269143 3.912625 25.269143 3.617888 C 25.269143 3.265257 25.168561 2.991573 24.967396 2.791573 C 24.771525 2.591573 24.506835 2.491573 24.168031 2.491573 C 23.802758 2.491573 23.48513 2.591573 23.215145 2.791573 C 22.945161 2.991573 22.733409 3.238941 22.590476 3.544204 C 22.442249 3.849467 22.368136 4.159993 22.368136 4.47052 C 22.368136 4.823151 22.463425 5.102098 22.654002 5.307361 C 22.844579 5.512624 23.103975 5.612624 23.426898 5.612624 Z M 32.092863 10.002096 C 31.298792 10.002096 30.716473 9.759991 30.335319 9.270517 C 29.964752 8.781044 29.779469 8.144202 29.779469 7.359992 C 29.779469 6.581045 29.932989 5.733677 30.24003 4.833677 C 30.430607 4.291572 30.637066 3.707362 30.859406 3.08631 C 31.092333 2.465257 31.330555 1.78631 31.600539 1.049469 C 31.288204 1.049469 31.055277 0.970521 30.891169 0.807364 C 30.72706 0.644206 30.621184 0.454732 30.568246 0.238943 C 30.520602 0.0178903 30.520602 -0.176846 30.568246 -0.340004 C 30.621184 -0.497899 30.711179 -0.582109 30.83823 -0.582109 C 31.457606 -0.582109 31.94993 -0.755793 32.299322 -1.097899 C 32.654007 -1.445267 32.902816 -1.808425 33.045749 -2.192635 C 33.299852 -2.813687 33.548661 -3.203161 33.786882 -3.366318 C 34.025103 -3.529476 34.279206 -3.613687 34.549191 -3.613687 C 34.95152 -3.613687 35.195035 -3.445266 35.290324 -3.113687 C 35.390906 -2.782108 35.279736 -2.282108 34.956814 -1.618951 C 34.803293 -1.276846 34.713299 -1.018951 34.697417 -0.845267 C 34.681536 -0.66632 34.776824 -0.582109 34.972695 -0.582109 L 36.073808 -0.582109 C 36.21674 -0.582109 36.312029 -0.482109 36.354379 -0.28211 C 36.391436 -0.0821096 36.391436 0.144206 36.343792 0.396838 C 36.290854 0.649469 36.200859 0.875785 36.06322 1.075785 C 35.930875 1.270521 35.761473 1.370521 35.544427 1.370521 C 34.898582 1.370521 34.416845 1.396837 34.104511 1.449469 C 33.79747 1.496837 33.57513 1.61789 33.448078 1.812626 C 33.321027 2.012626 33.183388 2.349468 33.045749 2.833678 C 32.818115 3.57052 32.849878 4.159993 33.135744 4.596835 C 33.426903 5.033677 33.887464 5.249467 34.512134 5.249467 C 34.935639 5.249467 35.311499 5.15473 35.645009 4.965256 C 35.973225 4.775783 36.243209 4.517888 36.454962 4.196836 C 36.571426 4.023151 36.714358 3.959994 36.889054 4.007362 C 37.069044 4.05473 37.21727 4.159993 37.333734 4.296835 C 37.455492 4.438941 37.481961 4.581046 37.413141 4.723151 C 37.28609 4.965256 37.111394 5.296835 36.899642 5.723151 C 36.693183 6.144203 36.43908 6.602097 36.137333 7.096834 C 35.846174 7.591571 35.496782 8.059991 35.099747 8.496833 C 34.708005 8.933675 34.258031 9.29157 33.755119 9.57578 C 33.252207 9.859991 32.701651 10.002096 32.092863 10.002096 Z M 41.902291 12.286305 C 40.869998 12.286305 39.9277 12.059989 39.070103 11.612621 C 38.2178 11.15999 37.540193 10.45999 37.031987 9.512622 C 36.534369 8.565254 36.280266 7.349466 36.280266 5.865256 C 36.280266 5.117888 36.407317 4.365257 36.656127 3.607362 C 36.899642 2.849468 37.264915 2.154731 37.751945 1.51789 C 38.228388 0.881048 38.805413 0.370522 39.498902 -0.0189518 C 40.181803 -0.408425 40.965287 -0.603162 41.838766 -0.603162 C 42.505785 -0.603162 43.045754 -0.476846 43.463965 -0.229478 C 43.876882 0.0178903 44.189217 0.344206 44.385088 0.754732 C 44.575665 1.165258 44.676247 1.6021 44.676247 2.070521 C 44.676247 2.633678 44.533314 3.17052 44.252742 3.67052 C 43.972171 4.175783 43.564547 4.581046 43.024579 4.891572 C 42.489904 5.202098 41.844059 5.359993 41.097632 5.359993 C 40.88588 5.359993 40.642365 5.33894 40.377674 5.296835 C 40.10769 5.25473 39.853587 5.159993 39.615366 5.017888 C 39.546546 4.975783 39.467139 4.975783 39.387732 5.012625 C 39.313619 5.049467 39.265974 5.133677 39.255387 5.275782 C 39.223624 5.823151 39.355969 6.249466 39.647129 6.554729 C 39.932994 6.859992 40.314149 7.070518 40.769416 7.191571 C 41.229977 7.312623 41.679951 7.370518 42.135219 7.370518 C 42.744007 7.370518 43.252213 7.296834 43.649248 7.149466 C 44.056872 7.002097 44.390381 6.817887 44.644484 6.602097 C 44.909175 6.381045 45.131515 6.159992 45.316798 5.933677 C 45.496788 5.707361 45.671483 5.517888 45.825004 5.370519 C 45.983818 5.223151 46.158514 5.149467 46.354385 5.149467 C 46.677307 5.149467 46.93141 5.35473 47.116693 5.765256 C 47.301976 6.175782 47.391971 6.670518 47.391971 7.249466 C 47.391971 7.854728 47.270214 8.459991 47.031992 9.059991 C 46.788477 9.659991 46.433792 10.202096 45.97323 10.691569 C 45.502081 11.175779 44.93035 11.565253 44.242155 11.854726 C 43.559253 12.1442 42.781064 12.286305 41.902291 12.286305 Z M 40.716478 3.765257 C 41.124101 3.765257 41.447024 3.633678 41.674657 3.37052 C 41.907585 3.112626 42.029343 2.844205 42.029343 2.575784 C 42.029343 2.338942 41.944642 2.133679 41.780534 1.965258 C 41.621719 1.791574 41.378204 1.707363 41.055282 1.707363 C 40.642365 1.707363 40.319442 1.833679 40.075927 2.091573 C 39.837706 2.344205 39.715948 2.612626 39.715948 2.896836 C 39.715948 3.123152 39.800649 3.323152 39.959463 3.502099 C 40.123571 3.675783 40.377674 3.765257 40.716478 3.765257 Z M 40.716478 3.765257 " stroke="#cb7f00" stroke-width="2.704" stroke-opacity="1" stroke-miterlimit="4"/></g><path fill="#ffbd59" d="M 12.359375 25.832031 C 11.726562 25.832031 11.210938 25.699219 10.804688 25.441406 C 10.402344 25.191406 10.113281 24.863281 9.9375 24.457031 C 9.75 24.042969 9.65625 23.621094 9.65625 23.1875 C 9.65625 22.761719 9.746094 22.351562 9.921875 21.953125 C 10.085938 21.558594 10.324219 21.242188 10.636719 21 C 10.945312 20.75 11.3125 20.625 11.738281 20.625 C 11.894531 20.625 11.972656 20.6875 11.972656 20.8125 C 11.972656 21.15625 12.113281 21.4375 12.40625 21.65625 C 12.707031 21.875 13.066406 21.984375 13.492188 21.984375 C 13.992188 21.984375 14.511719 21.773438 15.0625 21.34375 C 15.621094 20.917969 16.082031 20.230469 16.445312 19.28125 C 16.578125 18.929688 16.714844 18.5625 16.851562 18.1875 C 16.992188 17.804688 17.132812 17.4375 17.269531 17.09375 C 17.371094 16.824219 17.507812 16.632812 17.671875 16.515625 C 17.847656 16.402344 18.054688 16.34375 18.296875 16.34375 C 18.625 16.34375 18.832031 16.421875 18.917969 16.578125 C 19.011719 16.726562 19.03125 16.929688 18.980469 17.1875 C 18.925781 17.449219 18.828125 17.765625 18.683594 18.140625 C 18.535156 18.507812 18.375 18.890625 18.203125 19.296875 C 18.035156 19.703125 17.890625 20.089844 17.765625 20.453125 C 17.648438 20.808594 17.597656 21.105469 17.597656 21.34375 C 17.597656 21.542969 17.648438 21.714844 17.765625 21.859375 C 17.890625 22.007812 18.085938 22.078125 18.355469 22.078125 C 18.699219 22.078125 19.011719 21.960938 19.289062 21.71875 C 19.570312 21.480469 19.816406 21.167969 20.035156 20.78125 C 20.253906 20.398438 20.417969 19.96875 20.53125 19.5 C 20.644531 19.023438 20.703125 18.554688 20.703125 18.09375 C 20.703125 17.648438 20.617188 17.234375 20.453125 16.859375 C 20.289062 16.476562 20.003906 16.167969 19.601562 15.9375 C 19.203125 15.699219 18.644531 15.578125 17.921875 15.578125 C 17.433594 15.578125 16.960938 15.664062 16.507812 15.828125 C 16.0625 15.984375 15.699219 16.230469 15.421875 16.5625 C 15.140625 16.898438 15 17.339844 15 17.890625 C 15 18.121094 15.054688 18.3125 15.171875 18.46875 C 15.285156 18.617188 15.425781 18.6875 15.589844 18.6875 C 15.703125 18.699219 15.730469 18.808594 15.667969 19.015625 C 15.613281 19.226562 15.492188 19.464844 15.296875 19.734375 C 15.109375 20.007812 14.863281 20.242188 14.566406 20.4375 C 14.261719 20.636719 13.921875 20.734375 13.539062 20.734375 C 13.113281 20.734375 12.753906 20.632812 12.46875 20.421875 C 12.175781 20.203125 11.960938 19.917969 11.816406 19.5625 C 11.667969 19.210938 11.597656 18.835938 11.597656 18.4375 C 11.597656 17.773438 11.742188 17.140625 12.035156 16.546875 C 12.332031 15.945312 12.75 15.414062 13.292969 14.953125 C 13.839844 14.484375 14.488281 14.121094 15.234375 13.859375 C 15.980469 13.601562 16.796875 13.46875 17.6875 13.46875 C 18.691406 13.46875 19.539062 13.605469 20.222656 13.875 C 20.90625 14.136719 21.449219 14.5 21.851562 14.96875 C 22.265625 15.4375 22.566406 15.976562 22.753906 16.578125 C 22.941406 17.183594 23.035156 17.820312 23.035156 18.484375 C 23.035156 19.328125 22.902344 20.15625 22.644531 20.96875 C 22.398438 21.78125 22.054688 22.515625 21.621094 23.171875 C 21.191406 23.832031 20.695312 24.359375 20.128906 24.753906 C 19.570312 25.140625 18.980469 25.332031 18.355469 25.332031 C 17.703125 25.332031 17.191406 25.140625 16.820312 24.753906 C 16.445312 24.359375 16.238281 23.832031 16.199219 23.171875 C 15.75 24 15.195312 24.652344 14.535156 25.128906 C 13.882812 25.597656 13.15625 25.832031 12.359375 25.832031 Z M 12.359375 25.832031 " fill-opacity="1" fill-rule="nonzero"/><path fill="#ffbd59" d="M 24.667969 25.175781 C 24.125 25.175781 23.722656 24.957031 23.453125 24.519531 C 23.183594 24.074219 23.050781 23.5 23.050781 22.796875 C 23.050781 22.359375 23.101562 21.890625 23.207031 21.390625 C 23.316406 20.890625 23.476562 20.402344 23.6875 19.921875 C 23.90625 19.433594 24.171875 18.996094 24.496094 18.609375 C 24.824219 18.214844 25.203125 17.898438 25.628906 17.65625 C 26.054688 17.417969 26.539062 17.296875 27.089844 17.296875 C 27.402344 17.296875 27.636719 17.328125 27.804688 17.390625 C 27.980469 17.453125 28.109375 17.527344 28.191406 17.609375 C 28.285156 17.695312 28.363281 17.765625 28.425781 17.828125 C 28.488281 17.882812 28.574219 17.90625 28.691406 17.90625 C 28.867188 17.90625 29.003906 17.859375 29.109375 17.765625 C 29.222656 17.664062 29.347656 17.558594 29.484375 17.453125 C 29.613281 17.351562 29.800781 17.296875 30.042969 17.296875 C 30.25 17.296875 30.386719 17.355469 30.460938 17.46875 C 30.542969 17.574219 30.585938 17.714844 30.585938 17.890625 C 30.585938 18.183594 30.5 18.476562 30.335938 18.765625 C 30.183594 19.046875 30.015625 19.421875 29.839844 19.890625 C 29.582031 20.464844 29.484375 20.902344 29.546875 21.203125 C 29.613281 21.507812 29.824219 21.65625 30.167969 21.65625 C 30.433594 21.65625 30.667969 21.589844 30.867188 21.453125 C 31.070312 21.308594 31.253906 21.109375 31.410156 20.859375 C 31.492188 20.734375 31.597656 20.695312 31.71875 20.734375 C 31.851562 20.765625 31.960938 20.835938 32.046875 20.9375 C 32.140625 21.042969 32.160156 21.148438 32.109375 21.25 C 31.921875 21.625 31.71875 22.039062 31.503906 22.484375 C 31.292969 22.921875 31.054688 23.351562 30.789062 23.769531 C 30.527344 24.175781 30.234375 24.515625 29.902344 24.785156 C 29.570312 25.046875 29.1875 25.175781 28.753906 25.175781 C 28.199219 25.175781 27.8125 24.957031 27.585938 24.519531 C 27.371094 24.074219 27.308594 23.527344 27.402344 22.875 L 27.339844 22.875 C 27.027344 23.515625 26.640625 24.058594 26.171875 24.503906 C 25.714844 24.953125 25.214844 25.175781 24.667969 25.175781 Z M 26.21875 21.921875 C 26.5 21.921875 26.738281 21.84375 26.933594 21.6875 C 27.140625 21.523438 27.300781 21.328125 27.417969 21.109375 C 27.527344 20.882812 27.585938 20.65625 27.585938 20.4375 C 27.585938 20.179688 27.511719 19.976562 27.371094 19.828125 C 27.222656 19.683594 27.027344 19.609375 26.78125 19.609375 C 26.507812 19.609375 26.269531 19.683594 26.066406 19.828125 C 25.867188 19.976562 25.710938 20.164062 25.597656 20.390625 C 25.492188 20.609375 25.441406 20.835938 25.441406 21.0625 C 25.441406 21.324219 25.507812 21.53125 25.644531 21.6875 C 25.789062 21.84375 25.980469 21.921875 26.21875 21.921875 Z M 26.21875 21.921875 " fill-opacity="1" fill-rule="nonzero"/><path fill="#ffbd59" d="M 32.625 25.175781 C 32.035156 25.175781 31.597656 25 31.320312 24.644531 C 31.046875 24.28125 30.914062 23.808594 30.914062 23.21875 C 30.914062 22.636719 31.03125 22.007812 31.257812 21.328125 C 31.390625 20.933594 31.539062 20.507812 31.707031 20.046875 C 31.871094 19.578125 32.058594 19.074219 32.265625 18.53125 C 32.027344 18.53125 31.847656 18.476562 31.722656 18.359375 C 31.605469 18.234375 31.527344 18.09375 31.488281 17.9375 C 31.460938 17.773438 31.460938 17.632812 31.488281 17.515625 C 31.527344 17.390625 31.597656 17.328125 31.691406 17.328125 C 32.160156 17.328125 32.519531 17.199219 32.78125 16.9375 C 33.035156 16.679688 33.21875 16.40625 33.324219 16.125 C 33.511719 15.667969 33.6875 15.382812 33.867188 15.265625 C 34.042969 15.140625 34.234375 15.078125 34.441406 15.078125 C 34.730469 15.078125 34.914062 15.203125 34.984375 15.453125 C 35.054688 15.695312 34.972656 16.058594 34.738281 16.546875 C 34.621094 16.796875 34.558594 16.992188 34.550781 17.125 C 34.539062 17.261719 34.605469 17.328125 34.753906 17.328125 L 35.5625 17.328125 C 35.664062 17.328125 35.730469 17.402344 35.761719 17.546875 C 35.792969 17.695312 35.785156 17.859375 35.746094 18.046875 C 35.714844 18.234375 35.648438 18.402344 35.546875 18.546875 C 35.453125 18.695312 35.328125 18.765625 35.171875 18.765625 C 34.695312 18.765625 34.335938 18.789062 34.101562 18.828125 C 33.871094 18.859375 33.710938 18.949219 33.617188 19.09375 C 33.527344 19.242188 33.425781 19.496094 33.324219 19.859375 C 33.15625 20.402344 33.175781 20.835938 33.386719 21.15625 C 33.601562 21.480469 33.945312 21.640625 34.410156 21.640625 C 34.722656 21.640625 34.992188 21.574219 35.234375 21.4375 C 35.484375 21.292969 35.683594 21.101562 35.839844 20.859375 C 35.921875 20.734375 36.027344 20.695312 36.152344 20.734375 C 36.285156 20.765625 36.398438 20.835938 36.492188 20.9375 C 36.585938 21.042969 36.601562 21.148438 36.539062 21.25 C 36.445312 21.429688 36.324219 21.679688 36.167969 22 C 36.011719 22.3125 35.824219 22.652344 35.609375 23.015625 C 35.390625 23.382812 35.132812 23.734375 34.847656 24.066406 C 34.554688 24.390625 34.226562 24.65625 33.851562 24.863281 C 33.480469 25.074219 33.066406 25.175781 32.625 25.175781 Z M 32.625 25.175781 " fill-opacity="1" fill-rule="nonzero"/><path fill="#ffbd59" d="M 39.863281 26.878906 C 39.09375 26.878906 38.394531 26.707031 37.765625 26.363281 C 37.140625 26.027344 36.644531 25.511719 36.273438 24.816406 C 35.898438 24.109375 35.710938 23.203125 35.710938 22.109375 C 35.710938 21.546875 35.796875 20.992188 35.976562 20.4375 C 36.164062 19.875 36.429688 19.359375 36.785156 18.890625 C 37.144531 18.414062 37.582031 18.027344 38.089844 17.734375 C 38.59375 17.445312 39.171875 17.296875 39.816406 17.296875 C 40.300781 17.296875 40.699219 17.390625 41.011719 17.578125 C 41.320312 17.765625 41.546875 18.011719 41.695312 18.3125 C 41.839844 18.617188 41.914062 18.9375 41.914062 19.28125 C 41.914062 19.710938 41.808594 20.109375 41.601562 20.484375 C 41.390625 20.851562 41.089844 21.148438 40.683594 21.375 C 40.289062 21.605469 39.820312 21.71875 39.269531 21.71875 C 39.117188 21.71875 38.933594 21.703125 38.726562 21.671875 C 38.527344 21.640625 38.34375 21.574219 38.167969 21.46875 C 38.113281 21.4375 38.058594 21.4375 37.996094 21.46875 C 37.941406 21.492188 37.910156 21.554688 37.902344 21.65625 C 37.878906 22.074219 37.972656 22.398438 38.183594 22.625 C 38.402344 22.84375 38.679688 23 39.023438 23.09375 C 39.363281 23.179688 39.699219 23.21875 40.03125 23.21875 C 40.476562 23.21875 40.847656 23.167969 41.152344 23.0625 C 41.449219 22.949219 41.695312 22.8125 41.882812 22.65625 C 42.074219 22.492188 42.242188 22.324219 42.378906 22.15625 C 42.511719 21.992188 42.636719 21.851562 42.75 21.734375 C 42.863281 21.621094 42.992188 21.5625 43.140625 21.5625 C 43.386719 21.5625 43.578125 21.71875 43.714844 22.03125 C 43.847656 22.335938 43.917969 22.699219 43.917969 23.125 C 43.917969 23.578125 43.828125 24.027344 43.652344 24.472656 C 43.472656 24.921875 43.210938 25.320312 42.859375 25.675781 C 42.519531 26.039062 42.089844 26.332031 41.585938 26.550781 C 41.078125 26.769531 40.503906 26.878906 39.863281 26.878906 Z M 38.992188 20.546875 C 39.289062 20.546875 39.523438 20.453125 39.691406 20.265625 C 39.867188 20.070312 39.953125 19.871094 39.953125 19.671875 C 39.953125 19.484375 39.890625 19.328125 39.769531 19.203125 C 39.652344 19.078125 39.476562 19.015625 39.238281 19.015625 C 38.929688 19.015625 38.683594 19.117188 38.507812 19.3125 C 38.332031 19.5 38.246094 19.699219 38.246094 19.90625 C 38.246094 20.074219 38.300781 20.226562 38.417969 20.359375 C 38.539062 20.484375 38.730469 20.546875 38.992188 20.546875 Z M 38.992188 20.546875 " fill-opacity="1" fill-rule="nonzero"/><g clip-path="url(#b5d1112e50)"><path stroke-linecap="butt" transform="matrix(0.73789, 0, 0, 0.742188, 32.700156, 19.620162)" fill="none" stroke-linejoin="miter" d="M 31.883341 -6.214531 C 32.555655 -6.214531 33.053273 -6.067162 33.370902 -5.761899 C 33.693824 -5.456636 33.873813 -5.088216 33.905576 -4.646111 C 33.942633 -4.209269 33.879107 -3.767164 33.725587 -3.325059 C 33.566773 -2.87769 33.344433 -2.504006 33.053273 -2.198743 C 32.767407 -1.898744 32.455073 -1.746112 32.13215 -1.746112 C 31.840991 -1.746112 31.68747 -1.851375 31.68747 -2.067164 C 31.68747 -2.740848 31.428074 -3.082953 30.903987 -3.082953 C 30.448719 -3.082953 30.062271 -2.846111 29.728761 -2.372427 C 29.395251 -1.898744 29.109385 -1.304007 28.86587 -0.582955 L 31.094564 -0.582955 C 31.232203 -0.582955 31.327491 -0.482955 31.364548 -0.282955 C 31.412192 -0.082955 31.406898 0.143361 31.35396 0.395992 C 31.306316 0.648624 31.216321 0.874939 31.083976 1.074939 C 30.951631 1.269676 30.776935 1.369676 30.565183 1.369676 C 30.591652 1.369676 30.385193 1.348623 29.951101 1.306518 C 29.511715 1.264413 28.987628 1.217044 28.37884 1.180202 C 28.214732 1.959149 28.077093 2.738096 27.965923 3.517043 C 27.860046 4.290727 27.770052 4.964411 27.701232 5.527568 C 27.643 6.048621 27.595356 6.574936 27.553005 7.095989 C 27.510655 7.617041 27.431248 8.095988 27.314784 8.538093 C 27.193026 8.974935 26.997156 9.327566 26.721877 9.595987 C 26.457187 9.864408 26.065445 10.00125 25.536064 10.00125 C 24.89022 10.00125 24.472009 9.790724 24.281432 9.364409 C 24.090854 8.938093 24.064385 8.295988 24.207318 7.438094 C 24.350251 6.574936 24.583179 5.49599 24.921982 4.19599 C 25.080797 3.643359 25.234317 3.101254 25.393131 2.574938 C 25.541358 2.04336 25.705466 1.522307 25.880162 1.027571 L 25.578415 1.027571 C 25.08609 1.027571 24.757874 0.948623 24.583179 0.785466 C 24.419071 0.622308 24.355545 0.438097 24.387308 0.227571 C 24.424364 0.0117818 24.509065 -0.177692 24.646704 -0.34085 C 24.789637 -0.498744 24.927276 -0.582955 25.054328 -0.582955 L 26.467775 -0.582955 C 26.923042 -1.714533 27.415366 -2.698743 27.955335 -3.535585 C 28.495303 -4.37769 29.08821 -5.035584 29.739349 -5.509268 C 30.385193 -5.977689 31.105151 -6.214531 31.883341 -6.214531 Z M 40.506956 4.19599 C 40.591657 4.069674 40.718708 4.022306 40.903992 4.053885 C 41.089275 4.090727 41.248089 4.169674 41.385728 4.285464 C 41.523367 4.406516 41.539249 4.553885 41.459842 4.722306 C 41.258677 5.148621 41.004574 5.585463 40.681652 6.038094 C 40.369317 6.490726 39.972281 6.86441 39.495839 7.169673 C 39.019396 7.474936 38.442371 7.627567 37.748882 7.627567 L 37.494779 7.627567 C 36.970692 8.34862 36.346022 8.922304 35.62077 9.353882 C 34.890225 9.785461 34.127916 10.00125 33.333845 10.00125 C 32.391547 10.00125 31.608063 9.685461 30.988688 9.048619 C 30.364018 8.411777 30.056977 7.543357 30.056977 6.438094 C 30.056977 5.648621 30.194616 4.838095 30.485776 4.01178 C 30.782229 3.185464 31.184558 2.422307 31.708646 1.72757 C 32.227439 1.022308 32.846815 0.45915 33.550891 0.0328344 C 34.254968 -0.388218 35.033158 -0.604007 35.880167 -0.604007 C 36.462486 -0.604007 36.981279 -0.482955 37.452428 -0.251376 C 37.91299 -0.0197971 38.28885 0.364413 38.564128 0.901255 C 38.839406 1.438097 38.977045 2.159149 38.977045 3.048622 C 38.977045 3.801254 38.871169 4.527569 38.664711 5.227569 L 38.80235 5.227569 C 39.114684 5.227569 39.416431 5.148621 39.697003 4.985463 C 39.977575 4.822306 40.247559 4.559148 40.506956 4.19599 Z M 34.546127 5.611779 C 34.900812 5.611779 35.207853 5.506516 35.477838 5.29599 C 35.747822 5.085463 35.959574 4.822306 36.113095 4.522306 C 36.271909 4.217043 36.346022 3.917043 36.346022 3.622306 C 36.346022 3.31178 36.256028 3.048622 36.070744 2.82757 C 35.890755 2.606517 35.594301 2.495991 35.181384 2.495991 C 34.847874 2.495991 34.546127 2.595991 34.281437 2.795991 C 34.016746 2.995991 33.815582 3.243359 33.667355 3.548622 C 33.519128 3.853885 33.445015 4.159148 33.445015 4.469674 C 33.445015 4.7802 33.529716 5.048621 33.699118 5.274937 C 33.86852 5.501253 34.149092 5.611779 34.546127 5.611779 Z M 50.374616 5.127569 C 50.702832 5.127569 50.956935 5.332832 51.136925 5.753884 C 51.322208 6.169673 51.417496 6.674936 51.417496 7.269673 C 51.417496 7.774936 51.332796 8.306514 51.168687 8.859146 C 51.004579 9.406514 50.75577 9.922303 50.416967 10.406513 C 50.078163 10.88546 49.633483 11.269671 49.088221 11.569671 C 48.532371 11.864407 47.860057 12.011776 47.071279 12.011776 C 46.250739 12.011776 45.520193 11.843355 44.895524 11.506513 C 44.270854 11.169671 43.767942 10.706513 43.392082 10.122303 C 43.016222 9.53283 42.799175 8.859146 42.730356 8.095988 C 42.66683 7.332831 42.793882 6.522305 43.106216 5.674937 C 43.302087 5.138095 43.471489 4.638095 43.619716 4.164411 C 43.773236 3.685464 43.84735 3.295991 43.84735 2.985464 C 43.84735 2.843359 43.77853 2.62757 43.651479 2.338096 C 43.529721 2.048623 43.286206 1.822307 42.915639 1.669676 C 42.783294 1.953886 42.629774 2.285465 42.449784 2.669675 C 42.264501 3.048622 42.079217 3.42757 41.893934 3.801254 C 41.708651 4.174938 41.560424 4.480201 41.454548 4.722306 C 41.369847 4.906516 41.226914 4.974937 41.036337 4.922306 C 40.84576 4.874937 40.686946 4.774937 40.559894 4.617043 C 40.438137 4.464411 40.416961 4.322306 40.496369 4.19599 C 40.697533 3.91178 40.919873 3.490727 41.163388 2.932833 C 41.417491 2.374938 41.62395 1.853886 41.809233 1.369676 C 41.586893 1.285465 41.412197 1.15915 41.285146 0.995992 C 41.158095 0.832834 41.094569 0.580203 41.094569 0.227571 C 41.094569 -0.0724287 41.158095 -0.361902 41.295734 -0.651376 C 41.428079 -0.946112 41.618656 -1.188218 41.872759 -1.382954 C 42.132155 -1.582954 42.428609 -1.682954 42.762119 -1.682954 C 43.317969 -1.682954 43.857937 -1.60927 44.382024 -1.461902 C 44.916699 -1.314533 45.393142 -1.114533 45.816647 -0.867165 C 46.245445 -0.619797 46.578955 -0.346113 46.838352 -0.0461129 C 47.092455 0.248624 47.219506 0.538097 47.219506 0.817045 C 47.219506 1.211781 47.161274 1.580202 47.039516 1.92757 C 46.917759 2.264412 46.785414 2.617044 46.647775 2.980201 C 46.504842 3.338096 46.388378 3.759148 46.308971 4.238095 C 46.197801 4.943358 46.213682 5.485463 46.356615 5.859147 C 46.510136 6.232831 46.732476 6.485463 47.028929 6.611778 C 47.325382 6.738094 47.621835 6.801252 47.918289 6.801252 C 48.368263 6.801252 48.71236 6.717042 48.945288 6.548621 C 49.178215 6.374936 49.363499 6.1802 49.495844 5.96441 C 49.633483 5.743358 49.760534 5.548621 49.882292 5.3802 C 50.004049 5.211779 50.162864 5.127569 50.374616 5.127569 Z M 50.374616 5.127569 " stroke="#cb7f00" stroke-width="2.704" stroke-opacity="1" stroke-miterlimit="4"/></g><path fill="#ffbd59" d="M 56.21875 15.007812 C 56.722656 15.007812 57.089844 15.125 57.320312 15.351562 C 57.558594 15.570312 57.6875 15.84375 57.707031 16.164062 C 57.738281 16.488281 57.699219 16.816406 57.585938 17.148438 C 57.46875 17.484375 57.304688 17.765625 57.085938 17.992188 C 56.878906 18.210938 56.65625 18.320312 56.417969 18.320312 C 56.191406 18.320312 56.078125 18.242188 56.078125 18.085938 C 56.078125 17.585938 55.882812 17.335938 55.503906 17.335938 C 55.167969 17.335938 54.882812 17.515625 54.632812 17.867188 C 54.390625 18.210938 54.183594 18.65625 53.996094 19.195312 L 55.640625 19.195312 C 55.742188 19.195312 55.8125 19.269531 55.84375 19.414062 C 55.875 19.5625 55.867188 19.726562 55.828125 19.914062 C 55.796875 20.101562 55.726562 20.269531 55.625 20.414062 C 55.535156 20.5625 55.410156 20.632812 55.253906 20.632812 C 55.273438 20.632812 55.121094 20.617188 54.804688 20.585938 C 54.480469 20.554688 54.09375 20.523438 53.636719 20.492188 C 53.511719 21.066406 53.410156 21.644531 53.328125 22.226562 C 53.253906 22.804688 53.191406 23.304688 53.140625 23.730469 C 53.097656 24.117188 53.0625 24.503906 53.03125 24.886719 C 53 25.273438 52.9375 25.632812 52.84375 25.964844 C 52.761719 26.289062 52.621094 26.550781 52.425781 26.746094 C 52.226562 26.945312 51.933594 27.042969 51.539062 27.042969 C 51.0625 27.042969 50.753906 26.886719 50.625 26.574219 C 50.480469 26.261719 50.460938 25.789062 50.5625 25.152344 C 50.667969 24.507812 50.839844 23.699219 51.089844 22.730469 C 51.203125 22.320312 51.316406 21.921875 51.429688 21.523438 C 51.542969 21.128906 51.664062 20.75 51.789062 20.382812 L 51.570312 20.382812 C 51.207031 20.382812 50.964844 20.328125 50.839844 20.210938 C 50.71875 20.085938 50.671875 19.945312 50.703125 19.789062 C 50.722656 19.632812 50.78125 19.5 50.886719 19.382812 C 50.988281 19.257812 51.089844 19.195312 51.183594 19.195312 L 52.238281 19.195312 C 52.570312 18.351562 52.929688 17.617188 53.328125 16.992188 C 53.71875 16.367188 54.15625 15.882812 54.632812 15.539062 C 55.117188 15.1875 55.644531 15.007812 56.21875 15.007812 Z M 56.21875 15.007812 " fill-opacity="1" fill-rule="nonzero"/><path fill="#ffbd59" d="M 62.582031 22.730469 C 62.652344 22.636719 62.757812 22.605469 62.890625 22.636719 C 63.023438 22.660156 63.140625 22.714844 63.234375 22.808594 C 63.335938 22.894531 63.359375 22.996094 63.296875 23.121094 C 63.148438 23.433594 62.957031 23.761719 62.722656 24.105469 C 62.480469 24.441406 62.183594 24.722656 61.835938 24.949219 C 61.492188 25.167969 61.066406 25.277344 60.5625 25.277344 L 60.375 25.277344 C 59.980469 25.820312 59.511719 26.253906 58.976562 26.574219 C 58.449219 26.886719 57.890625 27.042969 57.296875 27.042969 C 56.601562 27.042969 56.023438 26.808594 55.558594 26.339844 C 55.101562 25.863281 54.875 25.214844 54.875 24.402344 C 54.875 23.808594 54.976562 23.210938 55.1875 22.605469 C 55.402344 21.988281 55.703125 21.421875 56.085938 20.898438 C 56.480469 20.378906 56.933594 19.960938 57.453125 19.648438 C 57.980469 19.328125 58.558594 19.164062 59.179688 19.164062 C 59.601562 19.164062 59.988281 19.253906 60.328125 19.429688 C 60.679688 19.609375 60.953125 19.894531 61.152344 20.289062 C 61.359375 20.6875 61.464844 21.21875 61.464844 21.882812 C 61.464844 22.4375 61.386719 22.976562 61.230469 23.496094 L 61.339844 23.496094 C 61.5625 23.496094 61.78125 23.441406 61.992188 23.324219 C 62.195312 23.199219 62.394531 23.003906 62.582031 22.730469 Z M 58.199219 23.792969 C 58.457031 23.792969 58.683594 23.714844 58.882812 23.558594 C 59.078125 23.394531 59.234375 23.199219 59.351562 22.980469 C 59.460938 22.753906 59.519531 22.527344 59.519531 22.304688 C 59.519531 22.078125 59.449219 21.882812 59.320312 21.726562 C 59.183594 21.5625 58.964844 21.476562 58.667969 21.476562 C 58.417969 21.476562 58.191406 21.550781 57.996094 21.695312 C 57.800781 21.84375 57.644531 22.03125 57.53125 22.257812 C 57.425781 22.476562 57.375 22.707031 57.375 22.933594 C 57.375 23.164062 57.4375 23.367188 57.5625 23.542969 C 57.6875 23.710938 57.898438 23.792969 58.199219 23.792969 Z M 58.199219 23.792969 " fill-opacity="1" fill-rule="nonzero"/><path fill="#ffbd59" d="M 69.867188 23.417969 C 70.117188 23.417969 70.308594 23.574219 70.441406 23.886719 C 70.574219 24.199219 70.644531 24.574219 70.644531 25.011719 C 70.644531 25.386719 70.582031 25.785156 70.457031 26.199219 C 70.34375 26.605469 70.15625 26.988281 69.898438 27.339844 C 69.652344 27.691406 69.324219 27.980469 68.921875 28.199219 C 68.515625 28.425781 68.019531 28.542969 67.429688 28.542969 C 66.828125 28.542969 66.292969 28.410156 65.828125 28.152344 C 65.363281 27.902344 64.988281 27.558594 64.710938 27.121094 C 64.4375 26.695312 64.277344 26.199219 64.226562 25.636719 C 64.183594 25.066406 64.277344 24.464844 64.507812 23.839844 C 64.652344 23.433594 64.777344 23.058594 64.878906 22.714844 C 64.992188 22.359375 65.050781 22.066406 65.050781 21.835938 C 65.050781 21.734375 65.003906 21.570312 64.910156 21.351562 C 64.816406 21.132812 64.636719 20.96875 64.367188 20.851562 C 64.273438 21.0625 64.15625 21.3125 64.027344 21.601562 C 63.890625 21.882812 63.753906 22.164062 63.621094 22.445312 C 63.484375 22.722656 63.375 22.945312 63.28125 23.121094 C 63.21875 23.257812 63.113281 23.308594 62.96875 23.277344 C 62.832031 23.238281 62.71875 23.160156 62.628906 23.042969 C 62.535156 22.929688 62.519531 22.824219 62.582031 22.730469 C 62.722656 22.523438 62.890625 22.207031 63.078125 21.789062 C 63.265625 21.375 63.421875 20.988281 63.558594 20.632812 C 63.382812 20.570312 63.25 20.484375 63.15625 20.367188 C 63.0625 20.242188 63.015625 20.050781 63.015625 19.789062 C 63.015625 19.570312 63.0625 19.351562 63.15625 19.132812 C 63.257812 18.914062 63.402344 18.734375 63.589844 18.585938 C 63.785156 18.441406 64.011719 18.367188 64.257812 18.367188 C 64.664062 18.367188 65.058594 18.425781 65.457031 18.539062 C 65.847656 18.644531 66.199219 18.789062 66.511719 18.976562 C 66.824219 19.164062 67.070312 19.367188 67.257812 19.585938 C 67.445312 19.804688 67.539062 20.019531 67.539062 20.226562 C 67.539062 20.519531 67.492188 20.789062 67.398438 21.039062 C 67.3125 21.289062 67.21875 21.550781 67.117188 21.820312 C 67.011719 22.09375 66.929688 22.40625 66.871094 22.761719 C 66.785156 23.285156 66.796875 23.683594 66.898438 23.964844 C 67.011719 24.246094 67.179688 24.433594 67.398438 24.527344 C 67.613281 24.621094 67.835938 24.667969 68.066406 24.667969 C 68.394531 24.667969 68.644531 24.605469 68.8125 24.480469 C 68.984375 24.355469 69.121094 24.214844 69.214844 24.058594 C 69.316406 23.894531 69.410156 23.746094 69.496094 23.621094 C 69.589844 23.488281 69.710938 23.417969 69.867188 23.417969 Z M 69.867188 23.417969 " fill-opacity="1" fill-rule="nonzero"/><g clip-path="url(#4e5de890c9)"><path stroke-linecap="butt" transform="matrix(0.73789, 0, 0, 0.742188, 59.706949, 20.572662)" fill="none" stroke-linejoin="miter" d="M 28.094356 10.002092 C 27.019713 10.002092 26.426806 9.523145 26.315636 8.559988 C 26.199172 7.59683 26.65444 6.1442 27.665558 4.196832 C 28.052006 3.459991 28.396103 2.77578 28.69785 2.149465 C 29.004891 1.517886 29.2537 0.92315 29.454865 0.354729 C 29.576623 -0.0031656 29.608385 -0.250534 29.550154 -0.403165 C 29.502509 -0.550534 29.396633 -0.640007 29.248406 -0.676849 C 29.10018 -0.713692 28.946659 -0.740007 28.793139 -0.76106 C 28.634325 -0.782113 28.523155 -0.829481 28.443747 -0.897902 C 28.36434 -0.971586 28.36434 -1.118955 28.438454 -1.340007 C 28.523155 -1.582112 28.687263 -1.892638 28.951953 -2.261059 C 29.216644 -2.640006 29.534272 -3.034743 29.915426 -3.445269 C 30.301874 -3.855795 30.704204 -4.240006 31.138296 -4.5979 C 31.567095 -4.961058 31.9906 -5.250531 32.403517 -5.476847 C 32.821728 -5.703163 33.197588 -5.818952 33.52051 -5.818952 C 33.891077 -5.818952 34.124005 -5.655794 34.219293 -5.329479 C 34.314582 -5.003163 34.198118 -4.492637 33.859314 -3.7979 C 33.239938 -2.54527 32.737027 -1.366323 32.355872 -0.26106 C 31.974718 0.844202 31.641208 1.875781 31.360636 2.838938 C 30.979482 4.149464 30.693616 5.25999 30.508333 6.175779 C 30.328343 7.086304 30.164235 7.823146 30.016009 8.391567 C 29.867782 8.954725 29.650736 9.365251 29.380752 9.623145 C 29.10018 9.875777 28.671381 10.002092 28.094356 10.002092 Z M 28.094356 10.002092 " stroke="#cb7f00" stroke-width="2.704" stroke-opacity="1" stroke-miterlimit="4"/></g><path fill="#ffbd59" d="M 80.441406 27.996094 C 79.640625 27.996094 79.203125 27.644531 79.121094 26.933594 C 79.035156 26.210938 79.371094 25.128906 80.128906 23.679688 C 80.410156 23.140625 80.660156 22.632812 80.875 22.164062 C 81.101562 21.695312 81.289062 21.253906 81.433594 20.835938 C 81.527344 20.578125 81.550781 20.390625 81.511719 20.273438 C 81.46875 20.160156 81.390625 20.09375 81.28125 20.070312 C 81.175781 20.039062 81.066406 20.019531 80.953125 20.007812 C 80.835938 19.988281 80.75 19.953125 80.691406 19.898438 C 80.636719 19.847656 80.636719 19.738281 80.691406 19.570312 C 80.75 19.394531 80.875 19.171875 81.0625 18.898438 C 81.257812 18.617188 81.496094 18.328125 81.777344 18.023438 C 82.066406 17.710938 82.367188 17.425781 82.679688 17.164062 C 82.996094 16.894531 83.308594 16.675781 83.609375 16.507812 C 83.921875 16.34375 84.199219 16.257812 84.449219 16.257812 C 84.71875 16.257812 84.886719 16.378906 84.960938 16.617188 C 85.03125 16.859375 84.945312 17.234375 84.699219 17.742188 C 84.230469 18.679688 83.859375 19.5625 83.578125 20.382812 C 83.300781 21.195312 83.054688 21.960938 82.847656 22.679688 C 82.570312 23.648438 82.359375 24.472656 82.226562 25.148438 C 82.089844 25.828125 81.96875 26.382812 81.855469 26.808594 C 81.738281 27.226562 81.578125 27.527344 81.375 27.714844 C 81.175781 27.902344 80.863281 27.996094 80.441406 27.996094 Z M 80.441406 27.996094 " fill-opacity="1" fill-rule="nonzero"/></svg>