<svg xmlns="http://www.w3.org/2000/svg" xmlns:xlink="http://www.w3.org/1999/xlink" width="130" zoomAndPan="magnify" viewBox="0 0 97.5 46.499999" height="62" preserveAspectRatio="xMidYMid meet" version="1.0"><defs><g/><clipPath id="c63537fd05"><path d="M 0.269531 0 L 52 0 L 52 34 L 0.269531 34 Z M 0.269531 0 " clip-rule="nonzero"/></clipPath></defs><g clip-path="url(#c63537fd05)"><path stroke-linecap="butt" transform="matrix(0.742021, 0, 0, 0.742021, 4.87181, 12.614361)" fill="none" stroke-linejoin="miter" d="M 4.631652 10.890459 C 3.768301 10.890459 3.068144 10.716736 2.520653 10.36929 C 1.978426 10.021843 1.583601 9.574375 1.336177 9.026884 C 1.088753 8.474128 0.962409 7.910844 0.962409 7.331767 C 0.962409 6.747426 1.083489 6.19467 1.31512 5.668236 C 1.54675 5.136538 1.873139 4.704863 2.299551 4.373209 C 2.725962 4.041556 3.22081 3.873097 3.784094 3.873097 C 3.994667 3.873097 4.099954 3.957327 4.099954 4.125786 C 4.099954 4.594312 4.299999 4.973344 4.705353 5.262882 C 5.110707 5.552421 5.60029 5.699822 6.179367 5.699822 C 6.842674 5.699822 7.548095 5.410284 8.295631 4.841735 C 9.048431 4.267923 9.669623 3.341399 10.164471 2.072694 C 10.348722 1.593639 10.532974 1.093527 10.727755 0.577622 C 10.917271 0.0617172 11.106787 -0.422602 11.291039 -0.875335 C 11.433176 -1.243838 11.617428 -1.507055 11.849058 -1.659721 C 12.080689 -1.817651 12.354435 -1.891352 12.665031 -1.891352 C 13.117764 -1.891352 13.402038 -1.79133 13.523118 -1.58602 C 13.644197 -1.380711 13.670519 -1.101701 13.596818 -0.748991 C 13.528382 -0.406809 13.396774 0.0143381 13.191464 0.51445 C 12.996684 1.014562 12.786111 1.535732 12.559744 2.083223 C 12.333377 2.625449 12.138597 3.141354 11.975403 3.630938 C 11.817472 4.115257 11.733243 4.520611 11.733243 4.852264 C 11.733243 5.115481 11.817472 5.347112 11.975403 5.536628 C 12.138597 5.726144 12.39655 5.820902 12.754524 5.820902 C 13.217786 5.820902 13.644197 5.662972 14.02323 5.347112 C 14.407526 5.031252 14.73918 4.610105 15.033983 4.088935 C 15.323521 3.562501 15.544623 2.983424 15.697289 2.351704 C 15.855219 1.709455 15.934184 1.082999 15.934184 0.461807 C 15.934184 -0.148856 15.823633 -0.701612 15.602531 -1.212252 C 15.381429 -1.722893 15.002397 -2.133511 14.454905 -2.454636 C 13.912679 -2.775761 13.154614 -2.933691 12.180712 -2.933691 C 11.512141 -2.933691 10.875156 -2.82314 10.269757 -2.602037 C 9.664358 -2.3862 9.169511 -2.049282 8.785214 -1.591285 C 8.406182 -1.143816 8.216666 -0.548946 8.216666 0.188061 C 8.216666 0.498657 8.290366 0.75661 8.448297 0.956655 C 8.600962 1.161964 8.795743 1.261986 9.022109 1.261986 C 9.180039 1.283043 9.21689 1.430445 9.137925 1.714719 C 9.05896 1.993729 8.890501 2.314854 8.627284 2.678093 C 8.369332 3.036068 8.032414 3.346664 7.621796 3.620409 C 7.211177 3.88889 6.75318 4.020499 6.242539 4.020499 C 5.663462 4.020499 5.173879 3.878362 4.779053 3.588823 C 4.384228 3.299285 4.089425 2.914988 3.88938 2.441198 C 3.689336 1.972672 3.594578 1.467295 3.594578 0.925068 C 3.594578 0.0248668 3.794622 -0.83322 4.199976 -1.633399 C 4.600066 -2.444107 5.173879 -3.154793 5.905622 -3.775985 C 6.642629 -4.402441 7.511245 -4.892024 8.521997 -5.244735 C 9.53275 -5.592181 10.643525 -5.771169 11.864851 -5.771169 C 13.217786 -5.771169 14.360147 -5.592181 15.286671 -5.234206 C 16.20793 -4.870967 16.950201 -4.376119 17.508221 -3.744399 C 18.071505 -3.117943 18.471595 -2.396728 18.719019 -1.58602 C 18.966442 -0.770048 19.087522 0.0827745 19.087522 0.988241 C 19.087522 2.120073 18.919063 3.236113 18.582146 4.331095 C 18.245228 5.426077 17.781967 6.415772 17.192361 7.300181 C 16.608019 8.179325 15.934184 8.890011 15.165591 9.421709 C 14.402262 9.948143 13.602083 10.211359 12.754524 10.211359 C 11.87538 10.211359 11.185752 9.948143 10.675111 9.421709 C 10.164471 8.890011 9.885461 8.18459 9.822289 7.31071 C 9.232683 8.410956 8.490411 9.284836 7.600738 9.927085 C 6.711065 10.569334 5.72137 10.890459 4.631652 10.890459 Z M 21.303808 10.000786 C 20.582594 10.000786 20.040367 9.700719 19.671864 9.111113 C 19.30336 8.516243 19.119108 7.74765 19.119108 6.800069 C 19.119108 6.205199 19.198073 5.573478 19.345475 4.899643 C 19.492876 4.231072 19.708714 3.567766 20.003517 2.920252 C 20.293055 2.272739 20.656295 1.683133 21.093235 1.151435 C 21.530175 0.619737 22.040815 0.193326 22.619893 -0.122535 C 23.19897 -0.443659 23.857012 -0.601589 24.594019 -0.601589 C 25.015166 -0.601589 25.346819 -0.559475 25.573186 -0.48051 C 25.810081 -0.406809 25.989068 -0.312051 26.110148 -0.196235 C 26.231228 -0.0804199 26.33125 0.0143381 26.41548 0.0933032 C 26.499709 0.167004 26.615525 0.209119 26.757662 0.209119 C 26.994557 0.209119 27.189337 0.140682 27.336739 0.00380946 C 27.48414 -0.127799 27.647335 -0.264672 27.831586 -0.39628 C 28.015838 -0.533153 28.273791 -0.601589 28.60018 -0.601589 C 28.87919 -0.601589 29.07397 -0.527889 29.184521 -0.385751 C 29.289808 -0.248879 29.342451 -0.0540982 29.342451 0.188061 C 29.342451 0.577622 29.2319 0.972448 29.010798 1.362008 C 28.79496 1.751569 28.563329 2.256946 28.326434 2.878138 C 27.973724 3.651995 27.842115 4.246865 27.931609 4.657484 C 28.021103 5.068102 28.305377 5.273411 28.768639 5.273411 C 29.137142 5.273411 29.453002 5.178653 29.721484 4.989137 C 29.989965 4.794356 30.232124 4.53114 30.447962 4.194222 C 30.558513 4.025763 30.70065 3.962591 30.874373 4.00997 C 31.053361 4.057349 31.200762 4.157372 31.321842 4.294244 C 31.442922 4.436381 31.469244 4.578519 31.400807 4.720656 C 31.142855 5.215503 30.869109 5.762994 30.579571 6.368393 C 30.290032 6.968528 29.968907 7.54234 29.610933 8.095096 C 29.258222 8.642587 28.858132 9.100584 28.405399 9.463824 C 27.952666 9.821799 27.431497 10.000786 26.836627 10.000786 C 26.104884 10.000786 25.583714 9.700719 25.278383 9.111113 C 24.978316 8.516243 24.888822 7.779236 25.015166 6.905356 L 24.936201 6.905356 C 24.50979 7.768707 23.983356 8.50045 23.362164 9.100584 C 22.740972 9.700719 22.056608 10.000786 21.303808 10.000786 Z M 23.425336 5.610329 C 23.79384 5.610329 24.114964 5.505042 24.38871 5.294468 C 24.66772 5.083895 24.883558 4.820678 25.036223 4.520611 C 25.194154 4.215279 25.267854 3.915212 25.267854 3.620409 C 25.267854 3.267699 25.167832 2.993953 24.967787 2.793908 C 24.773007 2.593863 24.504525 2.493841 24.167608 2.493841 C 23.804368 2.493841 23.483244 2.593863 23.214763 2.793908 C 22.946281 2.993953 22.735708 3.241377 22.588307 3.546708 C 22.440905 3.85204 22.367204 4.157372 22.367204 4.467967 C 22.367204 4.820678 22.461962 5.099688 22.651479 5.304997 C 22.846259 5.510306 23.104212 5.610329 23.425336 5.610329 Z M 32.090435 10.000786 C 31.300785 10.000786 30.716443 9.758626 30.337411 9.269043 C 29.963643 8.77946 29.779391 8.142475 29.779391 7.358089 C 29.779391 6.578967 29.932057 5.731408 30.242653 4.831207 C 30.432169 4.28898 30.637478 3.709903 30.85858 3.088711 C 31.090211 2.467519 31.332371 1.78842 31.600852 1.051413 C 31.290256 1.051413 31.053361 0.972448 30.890166 0.809253 C 30.726972 0.646059 30.621685 0.456542 30.569042 0.240705 C 30.521663 0.0196025 30.521663 -0.175178 30.569042 -0.338372 C 30.621685 -0.496303 30.711179 -0.580532 30.837523 -0.580532 C 31.458715 -0.580532 31.948298 -0.754255 32.301009 -1.096437 C 32.653719 -1.443883 32.901143 -1.807123 33.04328 -2.191419 C 33.301233 -2.812611 33.548657 -3.202172 33.785552 -3.365366 C 34.027711 -3.528561 34.2804 -3.61279 34.548881 -3.61279 C 34.948971 -3.61279 35.196394 -3.444331 35.291152 -3.112678 C 35.391175 -2.781025 35.280624 -2.280913 34.954235 -1.617606 C 34.801569 -1.275424 34.712075 -1.017472 34.696282 -0.843749 C 34.680489 -0.664761 34.775247 -0.580532 34.975292 -0.580532 L 36.075539 -0.580532 C 36.217676 -0.580532 36.312434 -0.48051 36.354549 -0.280465 C 36.391399 -0.0804199 36.391399 0.145947 36.34402 0.398635 C 36.291377 0.651323 36.201883 0.877689 36.06501 1.077734 C 35.933402 1.272515 35.759678 1.372537 35.543841 1.372537 C 34.896327 1.372537 34.417272 1.398859 34.106677 1.451502 C 33.796081 1.498881 33.574978 1.619961 33.448634 1.814741 C 33.32229 2.014786 33.185418 2.351704 33.04328 2.836023 C 32.816914 3.57303 32.8485 4.157372 33.138038 4.594312 C 33.427577 5.031252 33.885574 5.247089 34.512031 5.247089 C 34.933178 5.247089 35.31221 5.152331 35.643863 4.962815 C 35.975516 4.773299 36.243997 4.515347 36.454571 4.194222 C 36.570386 4.025763 36.712524 3.962591 36.891511 4.00997 C 37.070498 4.057349 37.2179 4.157372 37.333715 4.294244 C 37.454795 4.436381 37.481117 4.578519 37.41268 4.720656 C 37.286336 4.962815 37.112613 5.294468 36.90204 5.72088 C 36.691466 6.142027 36.438778 6.600024 36.138711 7.094872 C 35.843908 7.58972 35.496462 8.058246 35.101636 8.495186 C 34.706811 8.932126 34.259342 9.2901 33.753966 9.574375 C 33.253854 9.858649 32.701098 10.000786 32.090435 10.000786 Z M 41.90316 12.285508 C 40.87135 12.285508 39.929034 12.059142 39.070947 11.611673 C 38.218124 11.15894 37.539024 10.458783 37.033648 9.511203 C 36.533536 8.563622 36.280848 7.34756 36.280848 5.863017 C 36.280848 5.115481 36.407192 4.362681 36.654616 3.609881 C 36.90204 2.851816 37.265279 2.156923 37.749598 1.519939 C 38.228653 0.882954 38.80773 0.372313 39.497358 -0.0172479 C 40.181722 -0.406809 40.966108 -0.601589 41.839988 -0.601589 C 42.503295 -0.601589 43.045521 -0.475245 43.461404 -0.227821 C 43.877287 0.0196025 44.187882 0.345991 44.382663 0.75661 C 44.577443 1.167228 44.677466 1.604168 44.677466 2.072694 C 44.677466 2.635978 44.535329 3.172941 44.251055 3.673053 C 43.972045 4.173165 43.566691 4.578519 43.024464 4.889114 C 42.487502 5.19971 41.845252 5.35764 41.097716 5.35764 C 40.887143 5.35764 40.644983 5.336583 40.376502 5.294468 C 40.108021 5.252354 39.855333 5.157596 39.613173 5.015459 C 39.544737 4.973344 39.465772 4.973344 39.386807 5.010194 C 39.313106 5.047045 39.265727 5.131274 39.255198 5.273411 C 39.223612 5.820902 39.355221 6.247313 39.644759 6.552645 C 39.934298 6.857977 40.31333 7.06855 40.771328 7.18963 C 41.229325 7.31071 41.682058 7.368617 42.134791 7.368617 C 42.745454 7.368617 43.25083 7.294917 43.65092 7.147515 C 44.056274 7.000114 44.387927 6.815862 44.64588 6.600024 C 44.909097 6.378922 45.130199 6.15782 45.314451 5.931453 C 45.498702 5.705087 45.672426 5.515571 45.825091 5.368169 C 45.983021 5.220768 46.156745 5.147067 46.356789 5.147067 C 46.677914 5.147067 46.930602 5.352376 47.114854 5.762994 C 47.30437 6.173613 47.393864 6.66846 47.393864 7.247538 C 47.393864 7.852936 47.272784 8.458335 47.030625 9.05847 C 46.788465 9.658604 46.435754 10.200831 45.972493 10.690414 C 45.503967 11.174733 44.930154 11.564294 44.240526 11.853833 C 43.561426 12.143371 42.782304 12.285508 41.90316 12.285508 Z M 40.718684 3.767811 C 41.124038 3.767811 41.445163 3.636202 41.676794 3.372985 C 41.908424 3.115033 42.029504 2.846552 42.029504 2.57807 C 42.029504 2.341175 41.945275 2.135866 41.78208 1.967407 C 41.62415 1.793684 41.376726 1.709455 41.055602 1.709455 C 40.644983 1.709455 40.318595 1.835799 40.076435 2.093751 C 39.83954 2.34644 39.71846 2.614921 39.71846 2.899195 C 39.71846 3.125561 39.80269 3.325606 39.96062 3.504594 C 40.123814 3.678317 40.376502 3.767811 40.718684 3.767811 Z M 40.718684 3.767811 " stroke="#cb7f00" stroke-width="2.704097" stroke-opacity="1" stroke-miterlimit="4"/></g><g fill="#ffbd59" fill-opacity="1"><g transform="translate(6.216723, 20.034573)"><g><path d="M 2.09375 0.65625 C 1.457031 0.65625 0.9375 0.523438 0.53125 0.265625 C 0.125 0.015625 -0.164062 -0.3125 -0.34375 -0.71875 C -0.53125 -1.132812 -0.625 -1.554688 -0.625 -1.984375 C -0.625 -2.410156 -0.535156 -2.820312 -0.359375 -3.21875 C -0.191406 -3.613281 0.046875 -3.929688 0.359375 -4.171875 C 0.671875 -4.421875 1.039062 -4.546875 1.46875 -4.546875 C 1.625 -4.546875 1.703125 -4.484375 1.703125 -4.359375 C 1.703125 -4.015625 1.847656 -3.734375 2.140625 -3.515625 C 2.441406 -3.296875 2.804688 -3.1875 3.234375 -3.1875 C 3.734375 -3.1875 4.257812 -3.398438 4.8125 -3.828125 C 5.375 -4.253906 5.835938 -4.941406 6.203125 -5.890625 C 6.335938 -6.242188 6.472656 -6.609375 6.609375 -6.984375 C 6.753906 -7.367188 6.894531 -7.734375 7.03125 -8.078125 C 7.132812 -8.347656 7.269531 -8.539062 7.4375 -8.65625 C 7.613281 -8.769531 7.820312 -8.828125 8.0625 -8.828125 C 8.394531 -8.828125 8.601562 -8.75 8.6875 -8.59375 C 8.78125 -8.445312 8.800781 -8.242188 8.75 -7.984375 C 8.695312 -7.722656 8.597656 -7.40625 8.453125 -7.03125 C 8.304688 -6.664062 8.144531 -6.28125 7.96875 -5.875 C 7.800781 -5.46875 7.65625 -5.082031 7.53125 -4.71875 C 7.414062 -4.363281 7.359375 -4.066406 7.359375 -3.828125 C 7.359375 -3.628906 7.414062 -3.457031 7.53125 -3.3125 C 7.65625 -3.164062 7.851562 -3.09375 8.125 -3.09375 C 8.46875 -3.09375 8.78125 -3.210938 9.0625 -3.453125 C 9.34375 -3.691406 9.59375 -4.003906 9.8125 -4.390625 C 10.03125 -4.773438 10.195312 -5.203125 10.3125 -5.671875 C 10.425781 -6.148438 10.484375 -6.617188 10.484375 -7.078125 C 10.484375 -7.523438 10.398438 -7.9375 10.234375 -8.3125 C 10.066406 -8.695312 9.78125 -9.003906 9.375 -9.234375 C 8.976562 -9.472656 8.414062 -9.59375 7.6875 -9.59375 C 7.195312 -9.59375 6.722656 -9.507812 6.265625 -9.34375 C 5.816406 -9.1875 5.453125 -8.941406 5.171875 -8.609375 C 4.890625 -8.273438 4.75 -7.832031 4.75 -7.28125 C 4.75 -7.050781 4.804688 -6.859375 4.921875 -6.703125 C 5.035156 -6.554688 5.175781 -6.484375 5.34375 -6.484375 C 5.457031 -6.472656 5.484375 -6.363281 5.421875 -6.15625 C 5.367188 -5.945312 5.242188 -5.707031 5.046875 -5.4375 C 4.859375 -5.164062 4.613281 -4.929688 4.3125 -4.734375 C 4.007812 -4.535156 3.664062 -4.4375 3.28125 -4.4375 C 2.851562 -4.4375 2.492188 -4.539062 2.203125 -4.75 C 1.910156 -4.96875 1.691406 -5.253906 1.546875 -5.609375 C 1.398438 -5.960938 1.328125 -6.335938 1.328125 -6.734375 C 1.328125 -7.398438 1.472656 -8.03125 1.765625 -8.625 C 2.066406 -9.226562 2.488281 -9.757812 3.03125 -10.21875 C 3.582031 -10.6875 4.234375 -11.050781 4.984375 -11.3125 C 5.734375 -11.570312 6.554688 -11.703125 7.453125 -11.703125 C 8.460938 -11.703125 9.3125 -11.566406 10 -11.296875 C 10.6875 -11.035156 11.234375 -10.671875 11.640625 -10.203125 C 12.054688 -9.734375 12.359375 -9.195312 12.546875 -8.59375 C 12.734375 -7.988281 12.828125 -7.351562 12.828125 -6.6875 C 12.828125 -5.84375 12.695312 -5.015625 12.4375 -4.203125 C 12.1875 -3.390625 11.84375 -2.65625 11.40625 -2 C 10.976562 -1.34375 10.476562 -0.816406 9.90625 -0.421875 C 9.34375 -0.0351562 8.75 0.15625 8.125 0.15625 C 7.46875 0.15625 6.953125 -0.0351562 6.578125 -0.421875 C 6.203125 -0.816406 5.992188 -1.34375 5.953125 -2 C 5.503906 -1.175781 4.945312 -0.523438 4.28125 -0.046875 C 3.625 0.421875 2.894531 0.65625 2.09375 0.65625 Z M 2.09375 0.65625 "/></g></g></g><g fill="#ffbd59" fill-opacity="1"><g transform="translate(19.014109, 20.034573)"><g><path d="M 1.671875 0 C 1.128906 0 0.722656 -0.21875 0.453125 -0.65625 C 0.179688 -1.101562 0.046875 -1.675781 0.046875 -2.375 C 0.046875 -2.8125 0.0976562 -3.28125 0.203125 -3.78125 C 0.316406 -4.28125 0.476562 -4.769531 0.6875 -5.25 C 0.90625 -5.738281 1.175781 -6.175781 1.5 -6.5625 C 1.832031 -6.957031 2.210938 -7.273438 2.640625 -7.515625 C 3.066406 -7.753906 3.554688 -7.875 4.109375 -7.875 C 4.421875 -7.875 4.660156 -7.84375 4.828125 -7.78125 C 5.003906 -7.71875 5.132812 -7.644531 5.21875 -7.5625 C 5.3125 -7.476562 5.390625 -7.40625 5.453125 -7.34375 C 5.515625 -7.289062 5.601562 -7.265625 5.71875 -7.265625 C 5.894531 -7.265625 6.035156 -7.3125 6.140625 -7.40625 C 6.253906 -7.507812 6.378906 -7.613281 6.515625 -7.71875 C 6.648438 -7.820312 6.835938 -7.875 7.078125 -7.875 C 7.285156 -7.875 7.425781 -7.816406 7.5 -7.703125 C 7.582031 -7.597656 7.625 -7.457031 7.625 -7.28125 C 7.625 -6.988281 7.539062 -6.695312 7.375 -6.40625 C 7.21875 -6.125 7.050781 -5.75 6.875 -5.28125 C 6.613281 -4.707031 6.515625 -4.269531 6.578125 -3.96875 C 6.648438 -3.664062 6.859375 -3.515625 7.203125 -3.515625 C 7.472656 -3.515625 7.707031 -3.582031 7.90625 -3.71875 C 8.113281 -3.863281 8.296875 -4.0625 8.453125 -4.3125 C 8.535156 -4.4375 8.640625 -4.476562 8.765625 -4.4375 C 8.898438 -4.40625 9.007812 -4.335938 9.09375 -4.234375 C 9.1875 -4.128906 9.207031 -4.023438 9.15625 -3.921875 C 8.96875 -3.546875 8.765625 -3.132812 8.546875 -2.6875 C 8.335938 -2.25 8.097656 -1.820312 7.828125 -1.40625 C 7.566406 -1 7.269531 -0.660156 6.9375 -0.390625 C 6.601562 -0.128906 6.21875 0 5.78125 0 C 5.226562 0 4.835938 -0.21875 4.609375 -0.65625 C 4.390625 -1.101562 4.328125 -1.648438 4.421875 -2.296875 L 4.359375 -2.296875 C 4.046875 -1.660156 3.65625 -1.117188 3.1875 -0.671875 C 2.726562 -0.222656 2.222656 0 1.671875 0 Z M 3.234375 -3.25 C 3.515625 -3.25 3.753906 -3.328125 3.953125 -3.484375 C 4.160156 -3.648438 4.320312 -3.84375 4.4375 -4.0625 C 4.550781 -4.289062 4.609375 -4.515625 4.609375 -4.734375 C 4.609375 -4.992188 4.535156 -5.195312 4.390625 -5.34375 C 4.242188 -5.488281 4.046875 -5.5625 3.796875 -5.5625 C 3.523438 -5.5625 3.285156 -5.488281 3.078125 -5.34375 C 2.878906 -5.195312 2.722656 -5.007812 2.609375 -4.78125 C 2.503906 -4.5625 2.453125 -4.335938 2.453125 -4.109375 C 2.453125 -3.847656 2.519531 -3.640625 2.65625 -3.484375 C 2.800781 -3.328125 2.992188 -3.25 3.234375 -3.25 Z M 3.234375 -3.25 "/></g></g></g><g fill="#ffbd59" fill-opacity="1"><g transform="translate(27.095014, 20.034573)"><g><path d="M 1.59375 0 C 1 0 0.5625 -0.175781 0.28125 -0.53125 C 0.0078125 -0.894531 -0.125 -1.367188 -0.125 -1.953125 C -0.125 -2.535156 -0.0078125 -3.164062 0.21875 -3.84375 C 0.351562 -4.238281 0.503906 -4.664062 0.671875 -5.125 C 0.835938 -5.59375 1.023438 -6.097656 1.234375 -6.640625 C 0.992188 -6.640625 0.8125 -6.695312 0.6875 -6.8125 C 0.570312 -6.9375 0.492188 -7.078125 0.453125 -7.234375 C 0.421875 -7.398438 0.421875 -7.539062 0.453125 -7.65625 C 0.492188 -7.78125 0.5625 -7.84375 0.65625 -7.84375 C 1.125 -7.84375 1.488281 -7.972656 1.75 -8.234375 C 2.007812 -8.492188 2.191406 -8.765625 2.296875 -9.046875 C 2.484375 -9.503906 2.664062 -9.789062 2.84375 -9.90625 C 3.019531 -10.03125 3.210938 -10.09375 3.421875 -10.09375 C 3.710938 -10.09375 3.894531 -9.96875 3.96875 -9.71875 C 4.039062 -9.476562 3.957031 -9.113281 3.71875 -8.625 C 3.601562 -8.375 3.539062 -8.179688 3.53125 -8.046875 C 3.519531 -7.910156 3.585938 -7.84375 3.734375 -7.84375 L 4.546875 -7.84375 C 4.648438 -7.84375 4.71875 -7.769531 4.75 -7.625 C 4.78125 -7.476562 4.773438 -7.3125 4.734375 -7.125 C 4.703125 -6.9375 4.632812 -6.769531 4.53125 -6.625 C 4.4375 -6.476562 4.3125 -6.40625 4.15625 -6.40625 C 3.675781 -6.40625 3.316406 -6.382812 3.078125 -6.34375 C 2.847656 -6.3125 2.6875 -6.222656 2.59375 -6.078125 C 2.5 -5.929688 2.398438 -5.675781 2.296875 -5.3125 C 2.128906 -4.769531 2.148438 -4.335938 2.359375 -4.015625 C 2.578125 -3.691406 2.921875 -3.53125 3.390625 -3.53125 C 3.703125 -3.53125 3.976562 -3.597656 4.21875 -3.734375 C 4.46875 -3.878906 4.671875 -4.070312 4.828125 -4.3125 C 4.910156 -4.4375 5.015625 -4.476562 5.140625 -4.4375 C 5.273438 -4.40625 5.390625 -4.335938 5.484375 -4.234375 C 5.578125 -4.128906 5.59375 -4.023438 5.53125 -3.921875 C 5.4375 -3.742188 5.3125 -3.492188 5.15625 -3.171875 C 5 -2.859375 4.8125 -2.519531 4.59375 -2.15625 C 4.375 -1.789062 4.117188 -1.441406 3.828125 -1.109375 C 3.535156 -0.785156 3.203125 -0.519531 2.828125 -0.3125 C 2.453125 -0.101562 2.039062 0 1.59375 0 Z M 1.59375 0 "/></g></g></g><g fill="#ffbd59" fill-opacity="1"><g transform="translate(31.559947, 20.034573)"><g><path d="M 4.40625 1.703125 C 3.632812 1.703125 2.929688 1.53125 2.296875 1.1875 C 1.671875 0.851562 1.171875 0.335938 0.796875 -0.359375 C 0.421875 -1.066406 0.234375 -1.96875 0.234375 -3.0625 C 0.234375 -3.625 0.320312 -4.179688 0.5 -4.734375 C 0.6875 -5.296875 0.957031 -5.8125 1.3125 -6.28125 C 1.675781 -6.757812 2.113281 -7.144531 2.625 -7.4375 C 3.132812 -7.726562 3.710938 -7.875 4.359375 -7.875 C 4.847656 -7.875 5.25 -7.78125 5.5625 -7.59375 C 5.875 -7.40625 6.101562 -7.160156 6.25 -6.859375 C 6.394531 -6.554688 6.46875 -6.234375 6.46875 -5.890625 C 6.46875 -5.460938 6.363281 -5.0625 6.15625 -4.6875 C 5.945312 -4.320312 5.640625 -4.023438 5.234375 -3.796875 C 4.835938 -3.566406 4.363281 -3.453125 3.8125 -3.453125 C 3.65625 -3.453125 3.472656 -3.46875 3.265625 -3.5 C 3.066406 -3.53125 2.878906 -3.597656 2.703125 -3.703125 C 2.648438 -3.734375 2.59375 -3.734375 2.53125 -3.703125 C 2.476562 -3.679688 2.445312 -3.617188 2.4375 -3.515625 C 2.414062 -3.097656 2.507812 -2.773438 2.71875 -2.546875 C 2.9375 -2.328125 3.21875 -2.171875 3.5625 -2.078125 C 3.90625 -1.992188 4.242188 -1.953125 4.578125 -1.953125 C 5.023438 -1.953125 5.398438 -2.003906 5.703125 -2.109375 C 6.003906 -2.222656 6.25 -2.359375 6.4375 -2.515625 C 6.632812 -2.679688 6.800781 -2.847656 6.9375 -3.015625 C 7.070312 -3.179688 7.195312 -3.320312 7.3125 -3.4375 C 7.425781 -3.550781 7.554688 -3.609375 7.703125 -3.609375 C 7.953125 -3.609375 8.144531 -3.453125 8.28125 -3.140625 C 8.414062 -2.835938 8.484375 -2.472656 8.484375 -2.046875 C 8.484375 -1.597656 8.394531 -1.148438 8.21875 -0.703125 C 8.039062 -0.253906 7.773438 0.144531 7.421875 0.5 C 7.078125 0.863281 6.648438 1.15625 6.140625 1.375 C 5.628906 1.59375 5.050781 1.703125 4.40625 1.703125 Z M 3.53125 -4.625 C 3.832031 -4.625 4.066406 -4.71875 4.234375 -4.90625 C 4.410156 -5.101562 4.5 -5.300781 4.5 -5.5 C 4.5 -5.6875 4.4375 -5.84375 4.3125 -5.96875 C 4.195312 -6.09375 4.019531 -6.15625 3.78125 -6.15625 C 3.46875 -6.15625 3.222656 -6.054688 3.046875 -5.859375 C 2.867188 -5.671875 2.78125 -5.472656 2.78125 -5.265625 C 2.78125 -5.097656 2.835938 -4.945312 2.953125 -4.8125 C 3.078125 -4.6875 3.269531 -4.625 3.53125 -4.625 Z M 3.53125 -4.625 "/></g></g></g><g fill="#ffbd59" fill-opacity="1"><g transform="translate(22.970171, 30.42287)"><g/></g></g><path stroke-linecap="butt" transform="matrix(0.742021, 0, 0, 0.742021, 28.764895, 14.481755)" fill="none" stroke-linejoin="miter" d="M 31.881811 -6.213652 C 32.555646 -6.213652 33.055758 -6.06625 33.371618 -5.760919 C 33.692743 -5.455587 33.87173 -5.087083 33.903316 -4.644879 C 33.940166 -4.207939 33.876994 -3.765735 33.724329 -3.32353 C 33.566398 -2.876062 33.345296 -2.502294 33.055758 -2.196962 C 32.766219 -1.896895 32.455623 -1.744229 32.134499 -1.744229 C 31.839696 -1.744229 31.68703 -1.849516 31.68703 -2.065354 C 31.68703 -2.739189 31.429078 -3.081371 30.902644 -3.081371 C 30.449911 -3.081371 30.06035 -2.844476 29.728697 -2.370685 C 29.397043 -1.896895 29.107505 -1.302025 28.865345 -0.580811 L 31.09216 -0.580811 C 31.234297 -0.580811 31.329055 -0.480788 31.365905 -0.280744 C 31.413285 -0.0806987 31.40802 0.145668 31.355377 0.398356 C 31.307998 0.651044 31.218504 0.877411 31.081631 1.077455 C 30.950023 1.272236 30.7763 1.372258 30.565726 1.372258 C 30.592048 1.372258 30.386739 1.351201 29.949799 1.309086 C 29.512859 1.266972 28.986425 1.219593 28.381026 1.182742 C 28.212567 1.9566 28.075695 2.735722 27.965144 3.514844 C 27.859857 4.288701 27.770363 4.962536 27.701927 5.525821 C 27.644019 6.04699 27.59664 6.573424 27.554525 7.094593 C 27.512411 7.615762 27.433446 8.094817 27.312366 8.537021 C 27.191286 8.973961 26.996506 9.326672 26.72276 9.595153 C 26.459543 9.863634 26.064718 10.000507 25.538284 10.000507 C 24.890771 10.000507 24.469624 9.789934 24.280107 9.363522 C 24.090591 8.937111 24.06427 8.294862 24.206407 7.436775 C 24.348544 6.573424 24.585439 5.494234 24.922357 4.193943 C 25.080287 3.641188 25.232953 3.098961 25.390883 2.572527 C 25.543548 2.040829 25.706743 1.524924 25.880466 1.030076 L 25.580399 1.030076 C 25.085551 1.030076 24.759162 0.951111 24.585439 0.787917 C 24.41698 0.624722 24.353808 0.440471 24.385394 0.229897 C 24.422245 0.0140594 24.506474 -0.175457 24.648611 -0.338651 C 24.790748 -0.496581 24.927621 -0.580811 25.053965 -0.580811 L 26.470072 -0.580811 C 26.922805 -1.712643 27.417653 -2.697074 27.954615 -3.534104 C 28.496842 -4.376398 29.086447 -5.03444 29.739225 -5.50823 C 30.386739 -5.976756 31.102689 -6.213652 31.881811 -6.213652 Z M 40.504795 4.193943 C 40.589024 4.067599 40.720633 4.02022 40.904885 4.051806 C 41.089136 4.088656 41.247067 4.167621 41.383939 4.283437 C 41.520812 4.404517 41.541869 4.551918 41.45764 4.720377 C 41.257595 5.146788 41.004907 5.583728 40.683783 6.036461 C 40.367922 6.489194 39.973097 6.862962 39.494042 7.168294 C 39.020252 7.473625 38.441175 7.626291 37.746282 7.626291 L 37.493594 7.626291 C 36.972425 8.347505 36.345969 8.921318 35.61949 9.352994 C 34.887747 9.784669 34.129683 10.000507 33.334768 10.000507 C 32.392451 10.000507 31.608065 9.684647 30.986873 9.047662 C 30.365681 8.410677 30.055086 7.542062 30.055086 6.436551 C 30.055086 5.6469 30.197223 4.836192 30.486761 4.009691 C 30.781564 3.18319 31.186918 2.419862 31.708087 1.724969 C 32.229257 1.024812 32.845184 0.461528 33.550605 0.0351167 C 34.256027 -0.38603 35.035149 -0.601868 35.882707 -0.601868 C 36.461784 -0.601868 36.982953 -0.480788 37.451479 -0.249157 C 37.914741 -0.0175267 38.288509 0.36677 38.562255 0.903732 C 38.841264 1.440695 38.978137 2.156645 38.978137 3.046318 C 38.978137 3.799118 38.87285 4.525596 38.662277 5.225753 L 38.804414 5.225753 C 39.11501 5.225753 39.415077 5.146788 39.699351 4.983594 C 39.978361 4.820399 40.246843 4.557182 40.504795 4.193943 Z M 34.545565 5.61005 C 34.898276 5.61005 35.208872 5.504763 35.477353 5.29419 C 35.745834 5.083616 35.961672 4.820399 36.114338 4.520332 C 36.272268 4.215001 36.345969 3.914933 36.345969 3.62013 C 36.345969 3.309535 36.256475 3.046318 36.072223 2.825215 C 35.893236 2.604113 35.593168 2.493562 35.18255 2.493562 C 34.845632 2.493562 34.545565 2.593585 34.282348 2.793629 C 34.019131 2.993674 33.813822 3.241098 33.666421 3.54643 C 33.519019 3.851761 33.445319 4.157093 33.445319 4.467689 C 33.445319 4.778285 33.529548 5.046766 33.698007 5.273132 C 33.866466 5.499499 34.15074 5.61005 34.545565 5.61005 Z M 50.375427 5.125731 C 50.701816 5.125731 50.954505 5.33104 51.138756 5.752187 C 51.323008 6.16807 51.417766 6.673446 51.417766 7.268316 C 51.417766 7.773693 51.333537 8.305391 51.170342 8.858146 C 51.007148 9.405637 50.75446 9.921542 50.417542 10.405861 C 50.080625 10.884916 49.633156 11.269213 49.085665 11.56928 C 48.532909 11.864083 47.859074 12.011484 47.069424 12.011484 C 46.248187 12.011484 45.521708 11.843025 44.895252 11.506108 C 44.268796 11.16919 43.768684 10.705928 43.389652 10.121587 C 43.015884 9.531981 42.800046 8.858146 42.73161 8.094817 C 42.668438 7.331488 42.794782 6.52078 43.105378 5.673222 C 43.300158 5.13626 43.473881 4.636148 43.621283 4.162357 C 43.773949 3.683302 43.847649 3.293742 43.847649 2.983146 C 43.847649 2.841008 43.779213 2.625171 43.652869 2.335632 C 43.531789 2.046094 43.284365 1.819727 42.915862 1.667061 C 42.784253 1.951335 42.631587 2.282989 42.447336 2.667285 C 42.263084 3.046318 42.078832 3.42535 41.89458 3.799118 C 41.710328 4.172886 41.562927 4.478217 41.452376 4.720377 C 41.368146 4.904629 41.226009 4.973065 41.036493 4.920422 C 40.846977 4.873043 40.689047 4.77302 40.557438 4.61509 C 40.436359 4.462424 40.415301 4.320287 40.494266 4.193943 C 40.699576 3.909669 40.920678 3.488522 41.162837 2.930502 C 41.415525 2.372482 41.626099 1.851313 41.810351 1.372258 C 41.589249 1.288029 41.410261 1.161685 41.283917 0.99849 C 41.157573 0.835296 41.094401 0.582608 41.094401 0.229897 C 41.094401 -0.07017 41.157573 -0.359709 41.294446 -0.649247 C 41.426054 -0.94405 41.620835 -1.18621 41.873523 -1.38099 C 42.131475 -1.581035 42.426278 -1.681057 42.763196 -1.681057 C 43.315951 -1.681057 43.858178 -1.607357 44.384612 -1.459955 C 44.91631 -1.312554 45.395364 -1.112509 45.816511 -0.865085 C 46.242923 -0.617661 46.57984 -0.343916 46.837793 -0.0438483 C 47.090481 0.250955 47.222089 0.540493 47.222089 0.819503 C 47.222089 1.214328 47.158917 1.582832 47.037838 1.925014 C 46.916758 2.261931 46.785149 2.614642 46.648277 2.977881 C 46.50614 3.335856 46.390324 3.757003 46.311359 4.236058 C 46.195544 4.941479 46.211337 5.483706 46.358738 5.857474 C 46.511404 6.231242 46.732506 6.48393 47.027309 6.610274 C 47.327376 6.736618 47.622179 6.79979 47.916982 6.79979 C 48.369715 6.79979 48.711897 6.715561 48.943528 6.547102 C 49.180423 6.373379 49.364675 6.178598 49.496283 5.962761 C 49.633156 5.741658 49.7595 5.546878 49.88058 5.378419 C 50.00166 5.20996 50.164854 5.125731 50.375427 5.125731 Z M 50.375427 5.125731 " stroke="#cb7f00" stroke-width="2.704097" stroke-opacity="1" stroke-miterlimit="4"/><g fill="#ffbd59" fill-opacity="1"><g transform="translate(46.898039, 21.901967)"><g><path d="M 5.515625 -12.03125 C 6.023438 -12.03125 6.394531 -11.914062 6.625 -11.6875 C 6.863281 -11.46875 6.992188 -11.195312 7.015625 -10.875 C 7.046875 -10.550781 7.003906 -10.222656 6.890625 -9.890625 C 6.773438 -9.554688 6.609375 -9.273438 6.390625 -9.046875 C 6.179688 -8.828125 5.957031 -8.71875 5.71875 -8.71875 C 5.488281 -8.71875 5.375 -8.796875 5.375 -8.953125 C 5.375 -9.453125 5.179688 -9.703125 4.796875 -9.703125 C 4.460938 -9.703125 4.171875 -9.523438 3.921875 -9.171875 C 3.679688 -8.828125 3.46875 -8.382812 3.28125 -7.84375 L 4.9375 -7.84375 C 5.039062 -7.84375 5.109375 -7.769531 5.140625 -7.625 C 5.171875 -7.476562 5.164062 -7.3125 5.125 -7.125 C 5.09375 -6.9375 5.023438 -6.769531 4.921875 -6.625 C 4.828125 -6.476562 4.703125 -6.40625 4.546875 -6.40625 C 4.566406 -6.40625 4.414062 -6.421875 4.09375 -6.453125 C 3.769531 -6.484375 3.378906 -6.515625 2.921875 -6.546875 C 2.796875 -5.972656 2.691406 -5.394531 2.609375 -4.8125 C 2.535156 -4.238281 2.472656 -3.738281 2.421875 -3.3125 C 2.378906 -2.925781 2.34375 -2.539062 2.3125 -2.15625 C 2.28125 -1.769531 2.21875 -1.410156 2.125 -1.078125 C 2.039062 -0.753906 1.898438 -0.492188 1.703125 -0.296875 C 1.503906 -0.0976562 1.207031 0 0.8125 0 C 0.332031 0 0.0234375 -0.15625 -0.109375 -0.46875 C -0.253906 -0.78125 -0.273438 -1.253906 -0.171875 -1.890625 C -0.0664062 -2.535156 0.109375 -3.34375 0.359375 -4.3125 C 0.472656 -4.71875 0.585938 -5.117188 0.703125 -5.515625 C 0.816406 -5.910156 0.9375 -6.289062 1.0625 -6.65625 L 0.84375 -6.65625 C 0.476562 -6.65625 0.234375 -6.710938 0.109375 -6.828125 C -0.015625 -6.953125 -0.0625 -7.09375 -0.03125 -7.25 C -0.0078125 -7.40625 0.0507812 -7.539062 0.15625 -7.65625 C 0.257812 -7.78125 0.359375 -7.84375 0.453125 -7.84375 L 1.515625 -7.84375 C 1.847656 -8.6875 2.210938 -9.421875 2.609375 -10.046875 C 3.003906 -10.671875 3.441406 -11.15625 3.921875 -11.5 C 4.410156 -11.851562 4.941406 -12.03125 5.515625 -12.03125 Z M 5.515625 -12.03125 "/></g></g></g><g fill="#ffbd59" fill-opacity="1"><g transform="translate(50.969939, 21.901967)"><g><path d="M 7.84375 -4.3125 C 7.914062 -4.40625 8.019531 -4.4375 8.15625 -4.40625 C 8.289062 -4.382812 8.40625 -4.328125 8.5 -4.234375 C 8.601562 -4.148438 8.625 -4.046875 8.5625 -3.921875 C 8.414062 -3.609375 8.222656 -3.28125 7.984375 -2.9375 C 7.742188 -2.601562 7.445312 -2.320312 7.09375 -2.09375 C 6.75 -1.875 6.320312 -1.765625 5.8125 -1.765625 L 5.625 -1.765625 C 5.226562 -1.222656 4.757812 -0.789062 4.21875 -0.46875 C 3.6875 -0.15625 3.125 0 2.53125 0 C 1.832031 0 1.25 -0.234375 0.78125 -0.703125 C 0.320312 -1.179688 0.09375 -1.828125 0.09375 -2.640625 C 0.09375 -3.234375 0.195312 -3.832031 0.40625 -4.4375 C 0.625 -5.050781 0.925781 -5.617188 1.3125 -6.140625 C 1.707031 -6.660156 2.164062 -7.078125 2.6875 -7.390625 C 3.21875 -7.710938 3.796875 -7.875 4.421875 -7.875 C 4.847656 -7.875 5.234375 -7.785156 5.578125 -7.609375 C 5.929688 -7.429688 6.207031 -7.144531 6.40625 -6.75 C 6.613281 -6.351562 6.71875 -5.820312 6.71875 -5.15625 C 6.71875 -4.601562 6.640625 -4.066406 6.484375 -3.546875 L 6.59375 -3.546875 C 6.820312 -3.546875 7.039062 -3.601562 7.25 -3.71875 C 7.457031 -3.84375 7.65625 -4.039062 7.84375 -4.3125 Z M 3.4375 -3.25 C 3.695312 -3.25 3.925781 -3.328125 4.125 -3.484375 C 4.320312 -3.648438 4.476562 -3.84375 4.59375 -4.0625 C 4.707031 -4.289062 4.765625 -4.515625 4.765625 -4.734375 C 4.765625 -4.960938 4.695312 -5.15625 4.5625 -5.3125 C 4.425781 -5.476562 4.207031 -5.5625 3.90625 -5.5625 C 3.65625 -5.5625 3.429688 -5.488281 3.234375 -5.34375 C 3.035156 -5.195312 2.878906 -5.007812 2.765625 -4.78125 C 2.660156 -4.5625 2.609375 -4.335938 2.609375 -4.109375 C 2.609375 -3.878906 2.671875 -3.675781 2.796875 -3.5 C 2.921875 -3.332031 3.132812 -3.25 3.4375 -3.25 Z M 3.4375 -3.25 "/></g></g></g><g fill="#ffbd59" fill-opacity="1"><g transform="translate(58.45342, 21.901967)"><g><path d="M 7.6875 -3.625 C 7.9375 -3.625 8.128906 -3.46875 8.265625 -3.15625 C 8.398438 -2.84375 8.46875 -2.46875 8.46875 -2.03125 C 8.46875 -1.65625 8.40625 -1.257812 8.28125 -0.84375 C 8.164062 -0.4375 7.976562 -0.0546875 7.71875 0.296875 C 7.46875 0.648438 7.140625 0.9375 6.734375 1.15625 C 6.328125 1.382812 5.828125 1.5 5.234375 1.5 C 4.628906 1.5 4.09375 1.367188 3.625 1.109375 C 3.15625 0.859375 2.78125 0.515625 2.5 0.078125 C 2.226562 -0.347656 2.066406 -0.84375 2.015625 -1.40625 C 1.972656 -1.976562 2.066406 -2.578125 2.296875 -3.203125 C 2.441406 -3.609375 2.566406 -3.984375 2.671875 -4.328125 C 2.785156 -4.679688 2.84375 -4.972656 2.84375 -5.203125 C 2.84375 -5.304688 2.796875 -5.46875 2.703125 -5.6875 C 2.609375 -5.90625 2.425781 -6.070312 2.15625 -6.1875 C 2.0625 -5.976562 1.945312 -5.726562 1.8125 -5.4375 C 1.675781 -5.15625 1.539062 -4.875 1.40625 -4.59375 C 1.269531 -4.320312 1.15625 -4.097656 1.0625 -3.921875 C 1 -3.785156 0.894531 -3.734375 0.75 -3.765625 C 0.613281 -3.804688 0.5 -3.882812 0.40625 -4 C 0.3125 -4.113281 0.296875 -4.21875 0.359375 -4.3125 C 0.503906 -4.519531 0.671875 -4.832031 0.859375 -5.25 C 1.046875 -5.664062 1.207031 -6.050781 1.34375 -6.40625 C 1.164062 -6.46875 1.03125 -6.554688 0.9375 -6.671875 C 0.84375 -6.796875 0.796875 -6.988281 0.796875 -7.25 C 0.796875 -7.46875 0.84375 -7.6875 0.9375 -7.90625 C 1.039062 -8.125 1.1875 -8.304688 1.375 -8.453125 C 1.570312 -8.597656 1.796875 -8.671875 2.046875 -8.671875 C 2.453125 -8.671875 2.851562 -8.613281 3.25 -8.5 C 3.644531 -8.394531 4 -8.25 4.3125 -8.0625 C 4.625 -7.875 4.875 -7.671875 5.0625 -7.453125 C 5.25 -7.234375 5.34375 -7.019531 5.34375 -6.8125 C 5.34375 -6.519531 5.296875 -6.25 5.203125 -6 C 5.117188 -5.75 5.023438 -5.488281 4.921875 -5.21875 C 4.816406 -4.945312 4.734375 -4.632812 4.671875 -4.28125 C 4.585938 -3.757812 4.597656 -3.359375 4.703125 -3.078125 C 4.816406 -2.796875 4.984375 -2.609375 5.203125 -2.515625 C 5.421875 -2.421875 5.644531 -2.375 5.875 -2.375 C 6.207031 -2.375 6.457031 -2.4375 6.625 -2.5625 C 6.800781 -2.6875 6.9375 -2.828125 7.03125 -2.984375 C 7.132812 -3.148438 7.226562 -3.296875 7.3125 -3.421875 C 7.40625 -3.554688 7.53125 -3.625 7.6875 -3.625 Z M 7.6875 -3.625 "/></g></g></g><g fill="#ffbd59" fill-opacity="1"><g transform="translate(67.025364, 21.901967)"><g/></g></g><path stroke-linecap="butt" transform="matrix(0.742021, 0, 0, 0.742021, 55.92287, 15.434041)" fill="none" stroke-linejoin="miter" d="M 28.094427 10.001638 C 27.020503 10.001638 26.425633 9.522583 26.315081 8.559209 C 26.199266 7.595835 26.651999 6.142878 27.668016 4.195073 C 28.052313 3.458066 28.394495 2.773702 28.699826 2.147246 C 29.005158 1.515526 29.252582 0.920656 29.452626 0.352107 C 29.578971 -0.000603346 29.610557 -0.248027 29.552649 -0.400693 C 29.500006 -0.548094 29.394719 -0.637588 29.247317 -0.674439 C 29.099916 -0.711289 28.94725 -0.737611 28.794584 -0.758668 C 28.636654 -0.779725 28.520839 -0.827104 28.441874 -0.895541 C 28.362909 -0.969241 28.362909 -1.116643 28.436609 -1.337745 C 28.520839 -1.579905 28.689298 -1.8905 28.952514 -2.259004 C 29.215731 -2.638036 29.536856 -3.032862 29.915888 -3.44348 C 30.300185 -3.854098 30.705539 -4.238395 31.137214 -4.59637 C 31.56889 -4.959609 31.990037 -5.249148 32.40592 -5.475514 C 32.821802 -5.701881 33.19557 -5.817696 33.521959 -5.817696 C 33.890463 -5.817696 34.122094 -5.654502 34.216852 -5.328113 C 34.316874 -5.001724 34.195794 -4.491083 33.858877 -3.796191 C 33.237685 -2.543278 32.737573 -1.364067 32.353276 -0.258556 C 31.974244 0.841691 31.642591 1.873501 31.358317 2.836874 C 30.979284 4.147694 30.69501 5.25847 30.510758 6.174464 C 30.326506 7.085195 30.163312 7.822202 30.015911 8.39075 C 29.868509 8.954034 29.652671 9.364653 29.378926 9.622605 C 29.099916 9.875293 28.673505 10.001638 28.094427 10.001638 Z M 28.094427 10.001638 " stroke="#cb7f00" stroke-width="2.704097" stroke-opacity="1" stroke-miterlimit="4"/><g fill="#ffbd59" fill-opacity="1"><g transform="translate(74.960352, 22.854254)"><g><path d="M 1.8125 0 C 1.007812 0 0.566406 -0.351562 0.484375 -1.0625 C 0.398438 -1.78125 0.738281 -2.863281 1.5 -4.3125 C 1.78125 -4.851562 2.03125 -5.359375 2.25 -5.828125 C 2.476562 -6.296875 2.664062 -6.738281 2.8125 -7.15625 C 2.90625 -7.414062 2.929688 -7.601562 2.890625 -7.71875 C 2.847656 -7.832031 2.769531 -7.898438 2.65625 -7.921875 C 2.550781 -7.953125 2.441406 -7.972656 2.328125 -7.984375 C 2.210938 -8.003906 2.125 -8.039062 2.0625 -8.09375 C 2.007812 -8.144531 2.007812 -8.253906 2.0625 -8.421875 C 2.125 -8.597656 2.25 -8.820312 2.4375 -9.09375 C 2.632812 -9.375 2.875 -9.664062 3.15625 -9.96875 C 3.445312 -10.28125 3.75 -10.566406 4.0625 -10.828125 C 4.382812 -11.097656 4.695312 -11.316406 5 -11.484375 C 5.3125 -11.648438 5.59375 -11.734375 5.84375 -11.734375 C 6.113281 -11.734375 6.285156 -11.613281 6.359375 -11.375 C 6.429688 -11.132812 6.34375 -10.757812 6.09375 -10.25 C 5.625 -9.3125 5.25 -8.429688 4.96875 -7.609375 C 4.6875 -6.796875 4.441406 -6.03125 4.234375 -5.3125 C 3.953125 -4.34375 3.742188 -3.519531 3.609375 -2.84375 C 3.472656 -2.164062 3.347656 -1.613281 3.234375 -1.1875 C 3.117188 -0.769531 2.957031 -0.46875 2.75 -0.28125 C 2.550781 -0.09375 2.238281 0 1.8125 0 Z M 1.8125 0 "/></g></g></g><g fill="#ffbd59" fill-opacity="1"><g transform="translate(79.922619, 22.854254)"><g/></g></g></svg>