<svg xmlns="http://www.w3.org/2000/svg" xmlns:xlink="http://www.w3.org/1999/xlink" width="130" zoomAndPan="magnify" viewBox="0 0 97.5 46.499999" height="62" preserveAspectRatio="xMidYMid meet" version="1.0"><defs><g/><clipPath id="47379e0446"><path d="M 0.269531 0 L 96.734375 0 L 96.734375 46.003906 L 0.269531 46.003906 Z M 0.269531 0 " clip-rule="nonzero"/></clipPath><clipPath id="db2bf7e1ee"><path d="M 1 2 L 96.734375 2 L 96.734375 38 L 1 38 Z M 1 2 " clip-rule="nonzero"/></clipPath></defs><g clip-path="url(#47379e0446)"><path fill="#ffffff" d="M 0.269531 0 L 96.734375 0 L 96.734375 46.003906 L 0.269531 46.003906 Z M 0.269531 0 " fill-opacity="1" fill-rule="nonzero"/><path fill="#ffffff" d="M 0.269531 0 L 96.734375 0 L 96.734375 46.003906 L 0.269531 46.003906 Z M 0.269531 0 " fill-opacity="1" fill-rule="nonzero"/></g><g clip-path="url(#db2bf7e1ee)"><path stroke-linecap="butt" transform="matrix(0.742021, 0, 0, 0.742021, 4.87181, 18.17952)" fill="none" stroke-linejoin="miter" d="M 13.223051 9.834008 C 12.412343 9.834008 11.7543 9.670813 11.24366 9.344424 C 10.733019 9.0233 10.364515 8.602153 10.132885 8.086248 C 9.901254 7.570343 9.780174 7.038645 9.780174 6.496418 C 9.780174 5.954191 9.890725 5.433022 10.111827 4.938174 C 10.327665 4.443326 10.638261 4.037972 11.033086 3.727377 C 11.433176 3.411516 11.896438 3.258851 12.428136 3.258851 C 12.622916 3.258851 12.722938 3.337816 12.722938 3.495746 C 12.722938 3.932686 12.912455 4.290661 13.291487 4.559142 C 13.670519 4.832887 14.128517 4.96976 14.670743 4.96976 C 15.291935 4.96976 15.955242 4.701279 16.655398 4.164317 C 17.36082 3.627354 17.939897 2.764003 18.408423 1.568998 C 18.576882 1.116265 18.755869 0.653004 18.929592 0.168685 C 19.113844 -0.315634 19.287567 -0.768367 19.46129 -1.189514 C 19.592899 -1.536961 19.766622 -1.784385 19.98246 -1.931786 C 20.203562 -2.073923 20.461514 -2.147624 20.751053 -2.147624 C 21.1722 -2.147624 21.440681 -2.052866 21.556496 -1.858085 C 21.667048 -1.663305 21.693369 -1.405352 21.624933 -1.073699 C 21.561761 -0.757839 21.435417 -0.363014 21.245901 0.105513 C 21.061649 0.579303 20.861604 1.068886 20.65103 1.579527 C 20.440457 2.090168 20.256205 2.574487 20.103539 3.02722 C 19.956138 3.485217 19.877173 3.864249 19.877173 4.174845 C 19.877173 4.422269 19.956138 4.638107 20.103539 4.817094 C 20.256205 4.996082 20.498365 5.085576 20.835282 5.085576 C 21.272222 5.085576 21.667048 4.938174 22.019758 4.638107 C 22.382997 4.343304 22.693593 3.948479 22.967339 3.458895 C 23.241084 2.969312 23.446394 2.427085 23.593795 1.832215 C 23.741196 1.232081 23.809633 0.642475 23.809633 0.0581335 C 23.809633 -0.510415 23.70961 -1.031584 23.499037 -1.505375 C 23.298992 -1.984429 22.941017 -2.37399 22.430376 -2.674058 C 21.919736 -2.974125 21.20905 -3.121526 20.293055 -3.121526 C 19.671864 -3.121526 19.071729 -3.021504 18.503181 -2.81093 C 17.934632 -2.610886 17.471371 -2.295025 17.113396 -1.868614 C 16.755421 -1.442203 16.576433 -0.884183 16.576433 -0.199819 C 16.576433 0.0949838 16.650134 0.331879 16.797536 0.52666 C 16.944937 0.716176 17.123924 0.810934 17.334498 0.810934 C 17.481899 0.826727 17.51875 0.968864 17.439785 1.232081 C 17.371348 1.495298 17.213418 1.795365 16.965994 2.137547 C 16.723835 2.474464 16.407975 2.764003 16.018414 3.016691 C 15.639381 3.269379 15.207706 3.395723 14.728651 3.395723 C 14.186424 3.395723 13.728427 3.258851 13.359923 2.990369 C 12.99142 2.716624 12.71241 2.358649 12.522894 1.916445 C 12.338642 1.47424 12.249148 1.00045 12.249148 0.495073 C 12.249148 -0.352485 12.438664 -1.152664 12.812432 -1.905464 C 13.191464 -2.663529 13.728427 -3.3321 14.412791 -3.911177 C 15.102419 -4.500783 15.918391 -4.95878 16.865972 -5.285169 C 17.813553 -5.616822 18.855891 -5.780017 19.998253 -5.780017 C 21.272222 -5.780017 22.340883 -5.611558 23.204234 -5.27464 C 24.07285 -4.942987 24.767742 -4.474461 25.288912 -3.884855 C 25.815345 -3.295249 26.194378 -2.621414 26.420744 -1.858085 C 26.652375 -1.094756 26.773455 -0.294577 26.773455 0.552981 C 26.773455 1.616377 26.61026 2.658716 26.2944 3.690526 C 25.97854 4.711808 25.546864 5.638331 24.994109 6.470096 C 24.446618 7.296597 23.809633 7.959904 23.093683 8.454751 C 22.377733 8.949599 21.624933 9.197023 20.835282 9.197023 C 20.014046 9.197023 19.361268 8.949599 18.882213 8.454751 C 18.408423 7.959904 18.139942 7.296597 18.087298 6.475361 C 17.529278 7.507171 16.834386 8.328407 16.002621 8.933806 C 15.165591 9.533941 14.239068 9.834008 13.223051 9.834008 Z M 28.847604 9.002243 C 28.173768 9.002243 27.663128 8.723233 27.315681 8.165213 C 26.9735 7.607193 26.799776 6.885979 26.799776 6.00157 C 26.799776 5.443551 26.873477 4.84868 27.01035 4.222224 C 27.147223 3.590504 27.352532 2.969312 27.626277 2.363913 C 27.900023 1.75325 28.23694 1.200495 28.647559 0.705647 C 29.058177 0.205535 29.537232 -0.18929 30.079459 -0.489358 C 30.62695 -0.78416 31.242877 -0.936826 31.927241 -0.936826 C 32.327331 -0.936826 32.632662 -0.899976 32.8485 -0.821011 C 33.069602 -0.752574 33.238061 -0.663081 33.348612 -0.557794 C 33.464427 -0.452507 33.559185 -0.357749 33.638151 -0.284048 C 33.717116 -0.215612 33.822402 -0.178762 33.959275 -0.178762 C 34.180377 -0.178762 34.359365 -0.241934 34.501502 -0.368278 C 34.638375 -0.494622 34.796305 -0.620966 34.964764 -0.74731 C 35.138487 -0.873654 35.380646 -0.936826 35.685978 -0.936826 C 35.949195 -0.936826 36.133446 -0.86839 36.233469 -0.736781 C 36.333491 -0.605173 36.38087 -0.426186 36.38087 -0.199819 C 36.38087 0.168685 36.280848 0.537188 36.070274 0.905692 C 35.87023 1.268931 35.654392 1.742721 35.428025 2.327063 C 35.096372 3.053541 34.975292 3.606297 35.059522 3.995858 C 35.143751 4.380154 35.406968 4.569671 35.843908 4.569671 C 36.18609 4.569671 36.486157 4.480177 36.738845 4.306454 C 36.991533 4.122202 37.2179 3.874778 37.417945 3.558918 C 37.517967 3.400988 37.65484 3.34308 37.818034 3.385195 C 37.986493 3.432574 38.123366 3.522067 38.233917 3.653676 C 38.349732 3.785284 38.37079 3.916893 38.307618 4.053765 C 38.070723 4.511763 37.81277 5.027668 37.544289 5.596216 C 37.270543 6.1595 36.970476 6.696463 36.633558 7.212368 C 36.30717 7.728273 35.928137 8.154684 35.50699 8.496866 C 35.080579 8.833784 34.590996 9.002243 34.032976 9.002243 C 33.343348 9.002243 32.859029 8.723233 32.574754 8.165213 C 32.29048 7.607193 32.206251 6.922829 32.327331 6.101593 L 32.248365 6.101593 C 31.85354 6.907036 31.358692 7.5914 30.774351 8.154684 C 30.195274 8.717968 29.553025 9.002243 28.847604 9.002243 Z M 30.837523 4.885531 C 31.179705 4.885531 31.479772 4.785508 31.737725 4.590728 C 32.000942 4.390683 32.200986 4.148524 32.348388 3.864249 C 32.490525 3.579975 32.564226 3.295701 32.564226 3.016691 C 32.564226 2.690302 32.469468 2.43235 32.285216 2.248098 C 32.100964 2.058582 31.848276 1.963824 31.532416 1.963824 C 31.190234 1.963824 30.890166 2.058582 30.637478 2.248098 C 30.38479 2.43235 30.19001 2.66398 30.053137 2.948255 C 29.911 3.237793 29.842563 3.522067 29.842563 3.811606 C 29.842563 4.143259 29.932057 4.406476 30.111045 4.601257 C 30.290032 4.790773 30.532192 4.885531 30.837523 4.885531 Z M 38.960396 9.002243 C 38.218124 9.002243 37.665369 8.770612 37.312658 8.317879 C 36.965212 7.854617 36.791489 7.259747 36.791489 6.528004 C 36.791489 5.790997 36.93889 5.001346 37.228429 4.153788 C 37.402152 3.648412 37.596932 3.106185 37.807506 2.521843 C 38.018079 1.937502 38.24971 1.300517 38.497134 0.610889 C 38.207595 0.610889 37.986493 0.537188 37.833827 0.384522 C 37.681162 0.231857 37.581139 0.0528691 37.53376 -0.147176 C 37.486381 -0.357749 37.486381 -0.536737 37.53376 -0.689402 C 37.581139 -0.842068 37.665369 -0.915769 37.786448 -0.915769 C 38.365525 -0.915769 38.823523 -1.078963 39.155176 -1.400088 C 39.486829 -1.726477 39.71846 -2.068659 39.850069 -2.426634 C 40.092228 -3.005711 40.323859 -3.374214 40.544961 -3.52688 C 40.771328 -3.679546 41.013487 -3.758511 41.266175 -3.758511 C 41.634679 -3.758511 41.86631 -3.600581 41.955803 -3.289985 C 42.050562 -2.979389 41.945275 -2.510863 41.639943 -1.889671 C 41.497806 -1.568547 41.413577 -1.326387 41.397784 -1.163193 C 41.387255 -0.999998 41.471484 -0.915769 41.661001 -0.915769 L 42.692811 -0.915769 C 42.829683 -0.915769 42.913913 -0.821011 42.950763 -0.636759 C 42.992878 -0.452507 42.987614 -0.236669 42.940235 0.000225773 C 42.89812 0.237121 42.81389 0.447694 42.687546 0.637211 C 42.561202 0.821462 42.398008 0.910956 42.192699 0.910956 C 41.5873 0.910956 41.139831 0.937278 40.845028 0.984657 C 40.55549 1.032036 40.350181 1.147851 40.229101 1.332103 C 40.113285 1.516355 39.986941 1.832215 39.850069 2.284948 C 39.639495 2.974576 39.665817 3.527332 39.939562 3.93795 C 40.213308 4.343304 40.639719 4.548613 41.224061 4.548613 C 41.62415 4.548613 41.976861 4.459119 42.287457 4.280132 C 42.598053 4.101145 42.850741 3.858985 43.050786 3.558918 C 43.156072 3.400988 43.292945 3.34308 43.45614 3.385195 C 43.624598 3.432574 43.761471 3.522067 43.872022 3.653676 C 43.987838 3.785284 44.008895 3.916893 43.945723 4.053765 C 43.824643 4.280132 43.666713 4.590728 43.466668 4.985553 C 43.266623 5.380378 43.029728 5.812054 42.750718 6.28058 C 42.476973 6.738578 42.150584 7.175518 41.776816 7.586136 C 41.408312 7.996754 40.987165 8.338936 40.518639 8.602153 C 40.050113 8.86537 39.528944 9.002243 38.960396 9.002243 Z M 48.157193 11.144828 C 47.188555 11.144828 46.304146 10.934254 45.503967 10.507843 C 44.698523 10.086696 44.061538 9.428654 43.593012 8.544245 C 43.119222 7.654572 42.887591 6.512211 42.887591 5.122426 C 42.887591 4.422269 43.003407 3.716848 43.235037 3.011427 C 43.471933 2.300741 43.80885 1.647963 44.261583 1.053093 C 44.709052 0.458223 45.256543 -0.0260959 45.898792 -0.389335 C 46.541041 -0.752574 47.278048 -0.936826 48.099285 -0.936826 C 48.720477 -0.936826 49.225853 -0.821011 49.615414 -0.584116 C 50.004975 -0.357749 50.294514 -0.0471533 50.478766 0.337143 C 50.663017 0.72144 50.757775 1.132058 50.757775 1.568998 C 50.757775 2.100696 50.620903 2.600808 50.357686 3.074599 C 50.094469 3.543125 49.710172 3.922157 49.21006 4.211696 C 48.704684 4.501234 48.099285 4.648636 47.399128 4.648636 C 47.199083 4.648636 46.977981 4.627578 46.725293 4.590728 C 46.472605 4.548613 46.23571 4.459119 46.009343 4.327511 C 45.940907 4.290661 45.87247 4.285396 45.79877 4.322247 C 45.725069 4.353833 45.682954 4.438062 45.672426 4.569671 C 45.646104 5.085576 45.767184 5.485665 46.040929 5.769939 C 46.314675 6.054214 46.662121 6.254258 47.093797 6.36481 C 47.525472 6.480625 47.951884 6.533268 48.373031 6.533268 C 48.941579 6.533268 49.415369 6.464832 49.794402 6.327959 C 50.173434 6.185822 50.48403 6.017363 50.726189 5.812054 C 50.973613 5.606745 51.178922 5.396172 51.352646 5.185598 C 51.526369 4.975025 51.689563 4.796037 51.8317 4.659164 C 51.979102 4.517027 52.142296 4.448591 52.326548 4.448591 C 52.631879 4.448591 52.868775 4.643371 53.042498 5.027668 C 53.216221 5.411965 53.30045 5.875226 53.30045 6.417453 C 53.30045 6.986001 53.189899 7.55455 52.963533 8.117834 C 52.737166 8.681118 52.405513 9.191759 51.968573 9.644492 C 51.531633 10.102489 50.989406 10.465728 50.347157 10.73421 C 49.710172 11.007955 48.978429 11.144828 48.157193 11.144828 Z M 47.046418 3.158828 C 47.42545 3.158828 47.725517 3.037748 47.941355 2.790325 C 48.162457 2.542901 48.273008 2.295477 48.273008 2.042789 C 48.273008 1.821686 48.194043 1.63217 48.041377 1.468976 C 47.893976 1.311046 47.662345 1.226816 47.362278 1.226816 C 46.972717 1.226816 46.667385 1.347896 46.441019 1.590056 C 46.219917 1.826951 46.109366 2.079639 46.109366 2.342856 C 46.109366 2.553429 46.183066 2.742946 46.335732 2.911404 C 46.488398 3.074599 46.725293 3.158828 47.046418 3.158828 Z M 75.626505 -6.638104 C 75.926572 -6.638104 76.131881 -6.569667 76.242432 -6.432794 C 76.347719 -6.290657 76.400362 -6.090612 76.400362 -5.827396 C 76.400362 -5.322019 76.279283 -4.842965 76.042387 -4.390232 C 75.800228 -3.937499 75.447517 -3.574259 74.978991 -3.295249 C 74.510465 -3.021504 73.936653 -2.879367 73.262817 -2.879367 C 72.794291 -2.879367 72.388937 -2.93201 72.046755 -3.042561 C 71.704574 -3.147848 71.367656 -3.268928 71.046531 -3.400536 C 70.720142 -3.532145 70.362168 -3.64796 69.972607 -3.753247 C 69.583046 -3.858533 69.103991 -3.911177 68.530178 -3.911177 C 67.951101 -3.911177 67.398346 -3.848005 66.882441 -3.726925 C 66.366535 -3.600581 65.950653 -3.4058 65.640057 -3.142584 C 65.329461 -2.879367 65.176795 -2.53192 65.176795 -2.110773 C 65.176795 -1.842292 65.250496 -1.62119 65.392633 -1.436938 C 65.540035 -1.263215 65.719022 -1.173721 65.929596 -1.173721 C 66.019089 -0.963148 66.029618 -0.705195 65.945389 -0.405128 C 65.871688 -0.110325 65.713758 0.173949 65.482127 0.447694 C 65.250496 0.72144 64.950429 0.947806 64.581925 1.132058 C 64.22395 1.31631 63.802803 1.405804 63.329013 1.405804 C 62.781522 1.405804 62.328789 1.27946 61.955021 1.026772 C 61.581253 0.763555 61.302243 0.426637 61.117991 0.000225773 C 60.933739 -0.426186 60.844246 -0.878919 60.844246 -1.352709 C 60.844246 -2.295025 61.154842 -3.158377 61.776033 -3.953292 C 62.397225 -4.748206 63.318484 -5.385191 64.524017 -5.858982 C 65.740079 -6.338036 67.214094 -6.574932 68.951325 -6.574932 C 69.572517 -6.574932 70.098951 -6.564403 70.525362 -6.538081 C 70.962302 -6.511759 71.367656 -6.485438 71.746688 -6.453852 C 72.136249 -6.42753 72.552132 -6.417001 72.9996 -6.417001 C 73.720815 -6.417001 74.27357 -6.453852 74.657867 -6.527552 C 75.052692 -6.601253 75.373817 -6.638104 75.626505 -6.638104 Z M 72.388937 0.774083 C 72.783763 0.774083 73.041715 0.84252 73.168059 0.979393 C 73.294403 1.12153 73.357575 1.295253 73.357575 1.511091 C 73.357575 1.732193 73.289139 1.969088 73.152266 2.221776 C 73.010129 2.474464 72.794291 2.690302 72.494224 2.874554 C 72.199421 3.053541 71.820389 3.137771 71.357127 3.137771 C 71.036003 3.137771 70.735935 3.132506 70.456926 3.111449 C 70.177916 3.090392 69.909434 3.06407 69.640953 3.037748 C 69.55146 3.290437 69.456701 3.548389 69.356679 3.806342 C 69.256657 4.064294 69.15137 4.316982 69.046083 4.569671 C 68.293283 6.370074 67.398346 7.701951 66.356007 8.554774 C 65.318932 9.407597 64.176571 9.834008 62.928923 9.834008 C 62.012929 9.834008 61.270657 9.670813 60.702109 9.344424 C 60.13356 9.0233 59.717677 8.602153 59.459725 8.086248 C 59.201772 7.570343 59.075428 7.038645 59.075428 6.496418 C 59.075428 5.954191 59.180715 5.433022 59.401817 4.938174 C 59.617655 4.443326 59.928251 4.037972 60.323076 3.727377 C 60.723166 3.411516 61.186428 3.258851 61.718126 3.258851 C 61.912906 3.258851 62.012929 3.337816 62.012929 3.495746 C 62.012929 3.932686 62.186652 4.290661 62.528834 4.559142 C 62.871016 4.832887 63.334277 4.96976 63.902826 4.96976 C 64.418731 4.96976 64.987279 4.785508 65.608471 4.422269 C 66.229663 4.053765 66.787682 3.46416 67.28253 2.637659 C 67.187772 2.62713 67.093014 2.616601 66.998256 2.611337 C 66.908762 2.606073 66.819269 2.600808 66.72451 2.600808 C 66.482351 2.600808 66.308628 2.532372 66.203341 2.390235 C 66.098054 2.253362 66.050675 2.079639 66.050675 1.869066 C 66.050675 1.574263 66.140169 1.332103 66.324421 1.142587 C 66.513937 0.953071 66.814004 0.853048 67.224622 0.853048 L 68.056388 0.853048 C 68.230111 0.389787 68.39857 -0.0734749 68.561764 -0.536737 C 68.724959 -0.999998 68.893417 -1.436938 69.067141 -1.847557 C 69.198749 -2.195003 69.377736 -2.437162 69.593574 -2.584564 C 69.814676 -2.731965 70.072629 -2.800402 70.362168 -2.800402 C 70.799108 -2.800402 71.083382 -2.705644 71.225519 -2.510863 C 71.362392 -2.321347 71.378185 -2.05813 71.272898 -1.731741 C 71.141289 -1.279008 71.004417 -0.847333 70.867544 -0.43145 C 70.725407 -0.0155672 70.58327 0.400315 70.441133 0.810934 C 70.86228 0.800405 71.241312 0.789876 71.567701 0.784612 C 71.904618 0.774083 72.178364 0.774083 72.388937 0.774083 Z M 83.249265 3.558918 C 83.32823 3.437838 83.44931 3.395723 83.623033 3.427309 C 83.796756 3.458895 83.949422 3.532596 84.075766 3.643147 C 84.20211 3.758963 84.223168 3.895835 84.144203 4.053765 C 83.959951 4.448591 83.717791 4.859209 83.417724 5.28562 C 83.122921 5.706767 82.749153 6.059478 82.301684 6.349017 C 81.85948 6.633291 81.311989 6.775428 80.664476 6.775428 L 80.42758 6.775428 C 79.937997 7.449263 79.353656 7.99149 78.669292 8.391579 C 77.984928 8.796933 77.274242 9.002243 76.531971 9.002243 C 75.642298 9.002243 74.910555 8.702175 74.326213 8.107305 C 73.747136 7.507171 73.452333 6.696463 73.452333 5.664653 C 73.452333 4.917117 73.589206 4.159052 73.862952 3.385195 C 74.131433 2.611337 74.51573 1.895387 75.000049 1.242609 C 75.494896 0.584567 76.068709 0.0581335 76.726751 -0.336692 C 77.390058 -0.736781 78.121801 -0.936826 78.916716 -0.936826 C 79.458942 -0.936826 79.948526 -0.826275 80.385466 -0.605173 C 80.822406 -0.389335 81.169852 -0.0260959 81.427805 0.47928 C 81.691021 0.979393 81.817365 1.647963 81.817365 2.484993 C 81.817365 3.18515 81.717343 3.869514 81.522563 4.527556 L 81.659435 4.527556 C 81.948974 4.527556 82.227984 4.453855 82.491201 4.301189 C 82.759682 4.148524 83.01237 3.9011 83.249265 3.558918 Z M 77.663803 4.885531 C 77.995457 4.885531 78.284995 4.785508 78.537683 4.590728 C 78.790372 4.390683 78.990416 4.148524 79.137818 3.864249 C 79.279955 3.579975 79.353656 3.295701 79.353656 3.016691 C 79.353656 2.727152 79.269426 2.479729 79.095703 2.274419 C 78.927244 2.06911 78.648234 1.963824 78.263938 1.963824 C 77.942813 1.963824 77.663803 2.058582 77.416379 2.248098 C 77.17422 2.43235 76.979439 2.66398 76.842567 2.948255 C 76.70043 3.237793 76.631993 3.522067 76.631993 3.811606 C 76.631993 4.106409 76.710958 4.359097 76.868888 4.569671 C 77.026819 4.780244 77.2953 4.885531 77.663803 4.885531 Z M 92.50397 4.432798 C 92.809302 4.432798 93.046197 4.627578 93.214656 5.017139 C 93.393643 5.4067 93.477873 5.880491 93.477873 6.43851 C 93.477873 6.912301 93.398908 7.412413 93.246242 7.928318 C 93.093576 8.444223 92.856681 8.928542 92.540821 9.37601 C 92.22496 9.828744 91.809078 10.191983 91.287908 10.470993 C 90.772003 10.750003 90.145547 10.886875 89.403276 10.886875 C 88.634682 10.886875 87.955583 10.728945 87.365977 10.413085 C 86.776371 10.097225 86.307845 9.660285 85.955135 9.112794 C 85.607688 8.560038 85.397115 7.928318 85.339207 7.212368 C 85.281299 6.496418 85.397115 5.738353 85.686653 4.943438 C 85.870905 4.443326 86.0341 3.969536 86.170972 3.527332 C 86.31311 3.079863 86.381546 2.711359 86.381546 2.421821 C 86.381546 2.290212 86.323638 2.084903 86.202558 1.816422 C 86.086743 1.542677 85.855112 1.337367 85.507666 1.189966 C 85.386586 1.453183 85.244449 1.769043 85.070726 2.127018 C 84.902267 2.479729 84.728544 2.837704 84.554821 3.190414 C 84.381098 3.53786 84.244225 3.827399 84.138938 4.053765 C 84.059973 4.222224 83.928365 4.285396 83.749377 4.243282 C 83.57039 4.195903 83.422988 4.101145 83.301909 3.953743 C 83.186093 3.811606 83.165036 3.674733 83.244001 3.558918 C 83.428253 3.290437 83.638826 2.895611 83.870457 2.374442 C 84.102088 1.848008 84.302133 1.363689 84.475856 0.910956 C 84.265282 0.831991 84.102088 0.716176 83.981008 0.56351 C 83.859928 0.410844 83.802021 0.168685 83.802021 -0.157704 C 83.802021 -0.436714 83.865193 -0.71046 83.991537 -0.984205 C 84.117881 -1.252687 84.296868 -1.484317 84.533764 -1.668569 C 84.770659 -1.852821 85.049669 -1.947579 85.365529 -1.947579 C 85.886698 -1.947579 86.392075 -1.879143 86.886922 -1.74227 C 87.38177 -1.600133 87.829239 -1.415881 88.229328 -1.18425 C 88.629418 -0.952619 88.945278 -0.694667 89.187438 -0.415657 C 89.424333 -0.136647 89.545413 0.131834 89.545413 0.395051 C 89.545413 0.763555 89.487505 1.111001 89.376954 1.432126 C 89.261138 1.747986 89.140059 2.079639 89.003186 2.416557 C 88.871577 2.753474 88.766291 3.148299 88.69259 3.595768 C 88.582039 4.259075 88.597832 4.764451 88.739969 5.117162 C 88.876842 5.469872 89.087415 5.701503 89.366425 5.822583 C 89.640171 5.943663 89.919181 6.00157 90.19819 6.00157 C 90.624602 6.00157 90.940462 5.922605 91.161564 5.764675 C 91.377402 5.601481 91.551125 5.422493 91.677469 5.217184 C 91.803813 5.006611 91.924893 4.827623 92.035444 4.669693 C 92.15126 4.511763 92.303925 4.432798 92.50397 4.432798 Z M 103.043173 9.002243 C 102.037685 9.002243 101.479665 8.54951 101.374379 7.649308 C 101.269092 6.749106 101.690239 5.385643 102.648348 3.558918 C 103.006323 2.86929 103.327448 2.22704 103.611722 1.642699 C 103.895996 1.047829 104.132891 0.489809 104.317143 -0.0418889 C 104.432958 -0.373542 104.464545 -0.605173 104.411901 -0.74731 C 104.359258 -0.884183 104.2645 -0.968412 104.127627 -1.005263 C 103.98549 -1.036849 103.843353 -1.068435 103.701216 -1.084228 C 103.553814 -1.105285 103.443263 -1.1474 103.369562 -1.210572 C 103.295862 -1.279008 103.295862 -1.415881 103.364298 -1.626454 C 103.443263 -1.852821 103.601193 -2.14236 103.848617 -2.489806 C 104.096041 -2.842516 104.396108 -3.21102 104.754083 -3.600581 C 105.112058 -3.984878 105.49109 -4.342852 105.896444 -4.67977 C 106.301798 -5.021952 106.696624 -5.295698 107.086184 -5.506271 C 107.475745 -5.716845 107.823192 -5.827396 108.133788 -5.827396 C 108.47597 -5.827396 108.691807 -5.669465 108.781301 -5.364134 C 108.876059 -5.058802 108.765508 -4.585012 108.449648 -3.932234 C 107.865306 -2.758287 107.39678 -1.647512 107.038805 -0.615702 C 106.680831 0.416108 106.370235 1.384746 106.107018 2.284948 C 105.743778 3.516803 105.480562 4.559142 105.312103 5.417229 C 105.13838 6.270051 104.98045 6.95968 104.843577 7.491378 C 104.706704 8.023076 104.506659 8.407372 104.248707 8.644268 C 103.990754 8.881163 103.5854 9.002243 103.043173 9.002243 Z M 103.043173 9.002243 " stroke="#cb7f00" stroke-width="2.534101" stroke-opacity="1" stroke-miterlimit="4"/></g><g fill="#ffbd59" fill-opacity="1"><g transform="translate(12.721003, 24.857711)"><g><path d="M 1.96875 0.625 C 1.363281 0.625 0.867188 0.5 0.484375 0.25 C 0.109375 0.0078125 -0.160156 -0.296875 -0.328125 -0.671875 C -0.503906 -1.054688 -0.59375 -1.453125 -0.59375 -1.859375 C -0.59375 -2.265625 -0.507812 -2.648438 -0.34375 -3.015625 C -0.1875 -3.378906 0.0351562 -3.675781 0.328125 -3.90625 C 0.628906 -4.144531 0.976562 -4.265625 1.375 -4.265625 C 1.519531 -4.265625 1.59375 -4.203125 1.59375 -4.078125 C 1.59375 -3.753906 1.734375 -3.492188 2.015625 -3.296875 C 2.296875 -3.097656 2.632812 -3 3.03125 -3 C 3.5 -3 3.992188 -3.195312 4.515625 -3.59375 C 5.035156 -3.988281 5.46875 -4.628906 5.8125 -5.515625 C 5.9375 -5.847656 6.066406 -6.191406 6.203125 -6.546875 C 6.335938 -6.910156 6.46875 -7.25 6.59375 -7.5625 C 6.6875 -7.820312 6.816406 -8.003906 6.984375 -8.109375 C 7.148438 -8.222656 7.335938 -8.28125 7.546875 -8.28125 C 7.867188 -8.28125 8.070312 -8.207031 8.15625 -8.0625 C 8.238281 -7.914062 8.253906 -7.722656 8.203125 -7.484375 C 8.148438 -7.242188 8.054688 -6.945312 7.921875 -6.59375 C 7.785156 -6.25 7.640625 -5.882812 7.484375 -5.5 C 7.328125 -5.125 7.191406 -4.765625 7.078125 -4.421875 C 6.960938 -4.085938 6.90625 -3.804688 6.90625 -3.578125 C 6.90625 -3.390625 6.960938 -3.226562 7.078125 -3.09375 C 7.191406 -2.96875 7.367188 -2.90625 7.609375 -2.90625 C 7.929688 -2.90625 8.222656 -3.015625 8.484375 -3.234375 C 8.753906 -3.453125 8.988281 -3.742188 9.1875 -4.109375 C 9.394531 -4.472656 9.550781 -4.875 9.65625 -5.3125 C 9.769531 -5.757812 9.828125 -6.203125 9.828125 -6.640625 C 9.828125 -7.054688 9.75 -7.441406 9.59375 -7.796875 C 9.4375 -8.148438 9.171875 -8.4375 8.796875 -8.65625 C 8.421875 -8.882812 7.894531 -9 7.21875 -9 C 6.75 -9 6.300781 -8.921875 5.875 -8.765625 C 5.457031 -8.617188 5.113281 -8.382812 4.84375 -8.0625 C 4.582031 -7.75 4.453125 -7.335938 4.453125 -6.828125 C 4.453125 -6.609375 4.503906 -6.425781 4.609375 -6.28125 C 4.722656 -6.144531 4.859375 -6.078125 5.015625 -6.078125 C 5.117188 -6.066406 5.144531 -5.960938 5.09375 -5.765625 C 5.039062 -5.566406 4.921875 -5.34375 4.734375 -5.09375 C 4.554688 -4.84375 4.320312 -4.625 4.03125 -4.4375 C 3.75 -4.25 3.429688 -4.15625 3.078125 -4.15625 C 2.679688 -4.15625 2.34375 -4.253906 2.0625 -4.453125 C 1.789062 -4.660156 1.582031 -4.925781 1.4375 -5.25 C 1.300781 -5.582031 1.234375 -5.9375 1.234375 -6.3125 C 1.234375 -6.9375 1.375 -7.53125 1.65625 -8.09375 C 1.9375 -8.65625 2.332031 -9.148438 2.84375 -9.578125 C 3.351562 -10.015625 3.957031 -10.351562 4.65625 -10.59375 C 5.363281 -10.84375 6.140625 -10.96875 6.984375 -10.96875 C 7.929688 -10.96875 8.726562 -10.84375 9.375 -10.59375 C 10.019531 -10.34375 10.535156 -10 10.921875 -9.5625 C 11.304688 -9.125 11.582031 -8.625 11.75 -8.0625 C 11.925781 -7.5 12.015625 -6.898438 12.015625 -6.265625 C 12.015625 -5.484375 11.894531 -4.707031 11.65625 -3.9375 C 11.425781 -3.175781 11.109375 -2.488281 10.703125 -1.875 C 10.296875 -1.257812 9.828125 -0.769531 9.296875 -0.40625 C 8.765625 -0.0390625 8.203125 0.140625 7.609375 0.140625 C 7.003906 0.140625 6.523438 -0.0390625 6.171875 -0.40625 C 5.816406 -0.769531 5.617188 -1.257812 5.578125 -1.875 C 5.160156 -1.101562 4.640625 -0.492188 4.015625 -0.046875 C 3.398438 0.398438 2.71875 0.625 1.96875 0.625 Z M 1.96875 0.625 "/></g></g></g><g fill="#ffbd59" fill-opacity="1"><g transform="translate(24.716133, 24.857711)"><g><path d="M 1.5625 0 C 1.0625 0 0.679688 -0.203125 0.421875 -0.609375 C 0.171875 -1.023438 0.046875 -1.566406 0.046875 -2.234375 C 0.046875 -2.640625 0.0976562 -3.078125 0.203125 -3.546875 C 0.304688 -4.015625 0.457031 -4.472656 0.65625 -4.921875 C 0.851562 -5.378906 1.101562 -5.789062 1.40625 -6.15625 C 1.71875 -6.53125 2.070312 -6.828125 2.46875 -7.046875 C 2.875 -7.265625 3.332031 -7.375 3.84375 -7.375 C 4.144531 -7.375 4.375 -7.347656 4.53125 -7.296875 C 4.695312 -7.242188 4.820312 -7.175781 4.90625 -7.09375 C 4.988281 -7.019531 5.054688 -6.953125 5.109375 -6.890625 C 5.171875 -6.835938 5.253906 -6.8125 5.359375 -6.8125 C 5.523438 -6.8125 5.660156 -6.859375 5.765625 -6.953125 C 5.867188 -7.046875 5.984375 -7.140625 6.109375 -7.234375 C 6.234375 -7.328125 6.410156 -7.375 6.640625 -7.375 C 6.835938 -7.375 6.972656 -7.320312 7.046875 -7.21875 C 7.117188 -7.125 7.15625 -6.992188 7.15625 -6.828125 C 7.15625 -6.554688 7.078125 -6.285156 6.921875 -6.015625 C 6.773438 -5.742188 6.617188 -5.390625 6.453125 -4.953125 C 6.203125 -4.410156 6.109375 -4 6.171875 -3.71875 C 6.234375 -3.4375 6.425781 -3.296875 6.75 -3.296875 C 7.007812 -3.296875 7.234375 -3.359375 7.421875 -3.484375 C 7.609375 -3.617188 7.773438 -3.804688 7.921875 -4.046875 C 7.992188 -4.160156 8.09375 -4.195312 8.21875 -4.15625 C 8.34375 -4.125 8.445312 -4.054688 8.53125 -3.953125 C 8.613281 -3.859375 8.628906 -3.765625 8.578125 -3.671875 C 8.398438 -3.328125 8.210938 -2.945312 8.015625 -2.53125 C 7.816406 -2.113281 7.59375 -1.710938 7.34375 -1.328125 C 7.101562 -0.941406 6.820312 -0.625 6.5 -0.375 C 6.1875 -0.125 5.820312 0 5.40625 0 C 4.894531 0 4.535156 -0.203125 4.328125 -0.609375 C 4.117188 -1.023438 4.054688 -1.539062 4.140625 -2.15625 L 4.078125 -2.15625 C 3.785156 -1.550781 3.421875 -1.039062 2.984375 -0.625 C 2.554688 -0.207031 2.082031 0 1.5625 0 Z M 3.03125 -3.046875 C 3.289062 -3.046875 3.515625 -3.117188 3.703125 -3.265625 C 3.898438 -3.421875 4.050781 -3.601562 4.15625 -3.8125 C 4.269531 -4.019531 4.328125 -4.226562 4.328125 -4.4375 C 4.328125 -4.6875 4.253906 -4.878906 4.109375 -5.015625 C 3.972656 -5.148438 3.789062 -5.21875 3.5625 -5.21875 C 3.300781 -5.21875 3.078125 -5.148438 2.890625 -5.015625 C 2.703125 -4.878906 2.554688 -4.703125 2.453125 -4.484375 C 2.347656 -4.273438 2.296875 -4.0625 2.296875 -3.84375 C 2.296875 -3.601562 2.363281 -3.410156 2.5 -3.265625 C 2.632812 -3.117188 2.8125 -3.046875 3.03125 -3.046875 Z M 3.03125 -3.046875 "/></g></g></g><g fill="#ffbd59" fill-opacity="1"><g transform="translate(32.290454, 24.857711)"><g><path d="M 1.484375 0 C 0.929688 0 0.523438 -0.164062 0.265625 -0.5 C 0.00390625 -0.84375 -0.125 -1.285156 -0.125 -1.828125 C -0.125 -2.378906 -0.015625 -2.96875 0.203125 -3.59375 C 0.328125 -3.96875 0.46875 -4.367188 0.625 -4.796875 C 0.789062 -5.234375 0.96875 -5.707031 1.15625 -6.21875 C 0.9375 -6.21875 0.769531 -6.273438 0.65625 -6.390625 C 0.539062 -6.503906 0.46875 -6.632812 0.4375 -6.78125 C 0.40625 -6.9375 0.40625 -7.070312 0.4375 -7.1875 C 0.46875 -7.300781 0.53125 -7.359375 0.625 -7.359375 C 1.050781 -7.359375 1.382812 -7.476562 1.625 -7.71875 C 1.875 -7.957031 2.050781 -8.210938 2.15625 -8.484375 C 2.332031 -8.910156 2.503906 -9.179688 2.671875 -9.296875 C 2.835938 -9.410156 3.015625 -9.46875 3.203125 -9.46875 C 3.472656 -9.46875 3.640625 -9.351562 3.703125 -9.125 C 3.773438 -8.894531 3.703125 -8.546875 3.484375 -8.078125 C 3.367188 -7.847656 3.304688 -7.671875 3.296875 -7.546875 C 3.296875 -7.421875 3.363281 -7.359375 3.5 -7.359375 L 4.265625 -7.359375 C 4.359375 -7.359375 4.421875 -7.289062 4.453125 -7.15625 C 4.484375 -7.019531 4.476562 -6.863281 4.4375 -6.6875 C 4.40625 -6.507812 4.34375 -6.347656 4.25 -6.203125 C 4.15625 -6.066406 4.035156 -6 3.890625 -6 C 3.441406 -6 3.109375 -5.984375 2.890625 -5.953125 C 2.671875 -5.921875 2.515625 -5.832031 2.421875 -5.6875 C 2.335938 -5.550781 2.25 -5.316406 2.15625 -4.984375 C 2 -4.472656 2.019531 -4.0625 2.21875 -3.75 C 2.414062 -3.445312 2.734375 -3.296875 3.171875 -3.296875 C 3.460938 -3.296875 3.722656 -3.363281 3.953125 -3.5 C 4.191406 -3.632812 4.382812 -3.816406 4.53125 -4.046875 C 4.601562 -4.160156 4.703125 -4.195312 4.828125 -4.15625 C 4.953125 -4.125 5.054688 -4.054688 5.140625 -3.953125 C 5.222656 -3.859375 5.238281 -3.765625 5.1875 -3.671875 C 5.101562 -3.503906 4.984375 -3.269531 4.828125 -2.96875 C 4.679688 -2.675781 4.503906 -2.359375 4.296875 -2.015625 C 4.097656 -1.671875 3.859375 -1.347656 3.578125 -1.046875 C 3.304688 -0.742188 2.992188 -0.492188 2.640625 -0.296875 C 2.296875 -0.0976562 1.910156 0 1.484375 0 Z M 1.484375 0 "/></g></g></g><g fill="#ffbd59" fill-opacity="1"><g transform="translate(36.475487, 24.857711)"><g><path d="M 4.125 1.59375 C 3.40625 1.59375 2.75 1.4375 2.15625 1.125 C 1.5625 0.8125 1.085938 0.328125 0.734375 -0.328125 C 0.390625 -0.992188 0.21875 -1.84375 0.21875 -2.875 C 0.21875 -3.394531 0.300781 -3.914062 0.46875 -4.4375 C 0.644531 -4.96875 0.898438 -5.453125 1.234375 -5.890625 C 1.566406 -6.335938 1.972656 -6.695312 2.453125 -6.96875 C 2.929688 -7.238281 3.472656 -7.375 4.078125 -7.375 C 4.546875 -7.375 4.925781 -7.285156 5.21875 -7.109375 C 5.507812 -6.941406 5.722656 -6.710938 5.859375 -6.421875 C 5.992188 -6.140625 6.0625 -5.835938 6.0625 -5.515625 C 6.0625 -5.117188 5.960938 -4.742188 5.765625 -4.390625 C 5.566406 -4.046875 5.28125 -3.765625 4.90625 -3.546875 C 4.53125 -3.335938 4.082031 -3.234375 3.5625 -3.234375 C 3.414062 -3.234375 3.25 -3.242188 3.0625 -3.265625 C 2.875 -3.296875 2.695312 -3.363281 2.53125 -3.46875 C 2.488281 -3.5 2.4375 -3.5 2.375 -3.46875 C 2.320312 -3.445312 2.289062 -3.390625 2.28125 -3.296875 C 2.257812 -2.910156 2.347656 -2.609375 2.546875 -2.390625 C 2.753906 -2.179688 3.015625 -2.035156 3.328125 -1.953125 C 3.648438 -1.867188 3.972656 -1.828125 4.296875 -1.828125 C 4.710938 -1.828125 5.0625 -1.878906 5.34375 -1.984375 C 5.625 -2.085938 5.851562 -2.210938 6.03125 -2.359375 C 6.21875 -2.515625 6.375 -2.671875 6.5 -2.828125 C 6.632812 -2.984375 6.753906 -3.113281 6.859375 -3.21875 C 6.960938 -3.320312 7.085938 -3.375 7.234375 -3.375 C 7.453125 -3.375 7.625 -3.226562 7.75 -2.9375 C 7.882812 -2.65625 7.953125 -2.316406 7.953125 -1.921875 C 7.953125 -1.492188 7.867188 -1.070312 7.703125 -0.65625 C 7.535156 -0.238281 7.285156 0.132812 6.953125 0.46875 C 6.628906 0.8125 6.226562 1.082031 5.75 1.28125 C 5.28125 1.488281 4.738281 1.59375 4.125 1.59375 Z M 3.296875 -4.34375 C 3.585938 -4.34375 3.8125 -4.429688 3.96875 -4.609375 C 4.132812 -4.785156 4.21875 -4.96875 4.21875 -5.15625 C 4.21875 -5.320312 4.160156 -5.460938 4.046875 -5.578125 C 3.929688 -5.703125 3.765625 -5.765625 3.546875 -5.765625 C 3.253906 -5.765625 3.023438 -5.675781 2.859375 -5.5 C 2.691406 -5.320312 2.609375 -5.132812 2.609375 -4.9375 C 2.609375 -4.78125 2.664062 -4.640625 2.78125 -4.515625 C 2.894531 -4.398438 3.066406 -4.34375 3.296875 -4.34375 Z M 3.296875 -4.34375 "/></g></g></g><g fill="#ffbd59" fill-opacity="1"><g transform="translate(44.138224, 24.857711)"><g/></g></g><g fill="#ffbd59" fill-opacity="1"><g transform="translate(49.443196, 24.857711)"><g><path d="M 11.546875 -11.609375 C 11.773438 -11.609375 11.925781 -11.554688 12 -11.453125 C 12.082031 -11.347656 12.125 -11.195312 12.125 -11 C 12.125 -10.625 12.035156 -10.269531 11.859375 -9.9375 C 11.679688 -9.601562 11.414062 -9.332031 11.0625 -9.125 C 10.71875 -8.925781 10.296875 -8.828125 9.796875 -8.828125 C 9.453125 -8.828125 9.148438 -8.863281 8.890625 -8.9375 C 8.640625 -9.019531 8.390625 -9.109375 8.140625 -9.203125 C 7.898438 -9.296875 7.632812 -9.382812 7.34375 -9.46875 C 7.0625 -9.550781 6.707031 -9.59375 6.28125 -9.59375 C 5.851562 -9.59375 5.445312 -9.546875 5.0625 -9.453125 C 4.675781 -9.359375 4.367188 -9.210938 4.140625 -9.015625 C 3.910156 -8.816406 3.796875 -8.5625 3.796875 -8.25 C 3.796875 -8.050781 3.847656 -7.882812 3.953125 -7.75 C 4.054688 -7.613281 4.1875 -7.546875 4.34375 -7.546875 C 4.414062 -7.390625 4.421875 -7.203125 4.359375 -6.984375 C 4.304688 -6.765625 4.191406 -6.550781 4.015625 -6.34375 C 3.847656 -6.144531 3.628906 -5.976562 3.359375 -5.84375 C 3.085938 -5.707031 2.773438 -5.640625 2.421875 -5.640625 C 2.015625 -5.640625 1.671875 -5.734375 1.390625 -5.921875 C 1.117188 -6.109375 0.914062 -6.359375 0.78125 -6.671875 C 0.644531 -6.992188 0.578125 -7.332031 0.578125 -7.6875 C 0.578125 -8.382812 0.804688 -9.023438 1.265625 -9.609375 C 1.734375 -10.203125 2.414062 -10.675781 3.3125 -11.03125 C 4.207031 -11.382812 5.300781 -11.5625 6.59375 -11.5625 C 7.050781 -11.5625 7.441406 -11.550781 7.765625 -11.53125 C 8.085938 -11.507812 8.390625 -11.488281 8.671875 -11.46875 C 8.953125 -11.457031 9.265625 -11.453125 9.609375 -11.453125 C 10.140625 -11.453125 10.546875 -11.476562 10.828125 -11.53125 C 11.117188 -11.582031 11.359375 -11.609375 11.546875 -11.609375 Z M 9.140625 -6.109375 C 9.441406 -6.109375 9.640625 -6.054688 9.734375 -5.953125 C 9.828125 -5.847656 9.875 -5.71875 9.875 -5.5625 C 9.875 -5.394531 9.820312 -5.21875 9.71875 -5.03125 C 9.613281 -4.84375 9.445312 -4.679688 9.21875 -4.546875 C 9 -4.410156 8.71875 -4.34375 8.375 -4.34375 C 8.144531 -4.34375 7.925781 -4.347656 7.71875 -4.359375 C 7.507812 -4.378906 7.304688 -4.398438 7.109375 -4.421875 C 7.035156 -4.234375 6.960938 -4.039062 6.890625 -3.84375 C 6.816406 -3.65625 6.742188 -3.472656 6.671875 -3.296875 C 6.109375 -1.953125 5.441406 -0.960938 4.671875 -0.328125 C 3.898438 0.304688 3.050781 0.625 2.125 0.625 C 1.445312 0.625 0.894531 0.5 0.46875 0.25 C 0.0507812 0.0078125 -0.25 -0.296875 -0.4375 -0.671875 C -0.632812 -1.054688 -0.734375 -1.453125 -0.734375 -1.859375 C -0.734375 -2.265625 -0.648438 -2.648438 -0.484375 -3.015625 C -0.328125 -3.378906 -0.101562 -3.675781 0.1875 -3.90625 C 0.488281 -4.144531 0.832031 -4.265625 1.21875 -4.265625 C 1.375 -4.265625 1.453125 -4.203125 1.453125 -4.078125 C 1.453125 -3.753906 1.578125 -3.492188 1.828125 -3.296875 C 2.085938 -3.097656 2.425781 -3 2.84375 -3 C 3.226562 -3 3.648438 -3.132812 4.109375 -3.40625 C 4.578125 -3.675781 4.992188 -4.113281 5.359375 -4.71875 C 5.285156 -4.726562 5.210938 -4.734375 5.140625 -4.734375 C 5.078125 -4.742188 5.007812 -4.75 4.9375 -4.75 C 4.757812 -4.75 4.628906 -4.800781 4.546875 -4.90625 C 4.472656 -5.007812 4.4375 -5.140625 4.4375 -5.296875 C 4.4375 -5.515625 4.503906 -5.691406 4.640625 -5.828125 C 4.785156 -5.972656 5.007812 -6.046875 5.3125 -6.046875 L 5.921875 -6.046875 C 6.054688 -6.390625 6.179688 -6.734375 6.296875 -7.078125 C 6.421875 -7.421875 6.550781 -7.742188 6.6875 -8.046875 C 6.78125 -8.304688 6.90625 -8.488281 7.0625 -8.59375 C 7.226562 -8.707031 7.421875 -8.765625 7.640625 -8.765625 C 7.960938 -8.765625 8.175781 -8.691406 8.28125 -8.546875 C 8.382812 -8.398438 8.394531 -8.207031 8.3125 -7.96875 C 8.21875 -7.632812 8.117188 -7.3125 8.015625 -7 C 7.910156 -6.6875 7.804688 -6.378906 7.703125 -6.078125 C 8.015625 -6.085938 8.289062 -6.09375 8.53125 -6.09375 C 8.78125 -6.101562 8.984375 -6.109375 9.140625 -6.109375 Z M 9.140625 -6.109375 "/></g></g></g><g fill="#ffbd59" fill-opacity="1"><g transform="translate(59.286865, 24.857711)"><g><path d="M 7.359375 -4.046875 C 7.421875 -4.128906 7.515625 -4.15625 7.640625 -4.125 C 7.765625 -4.101562 7.875 -4.050781 7.96875 -3.96875 C 8.0625 -3.882812 8.082031 -3.785156 8.03125 -3.671875 C 7.882812 -3.378906 7.703125 -3.070312 7.484375 -2.75 C 7.265625 -2.4375 6.988281 -2.175781 6.65625 -1.96875 C 6.332031 -1.757812 5.925781 -1.65625 5.4375 -1.65625 L 5.265625 -1.65625 C 4.898438 -1.15625 4.460938 -0.753906 3.953125 -0.453125 C 3.453125 -0.148438 2.925781 0 2.375 0 C 1.71875 0 1.171875 -0.21875 0.734375 -0.65625 C 0.304688 -1.101562 0.09375 -1.710938 0.09375 -2.484375 C 0.09375 -3.023438 0.191406 -3.582031 0.390625 -4.15625 C 0.585938 -4.738281 0.867188 -5.269531 1.234375 -5.75 C 1.597656 -6.238281 2.023438 -6.628906 2.515625 -6.921875 C 3.015625 -7.222656 3.554688 -7.375 4.140625 -7.375 C 4.546875 -7.375 4.910156 -7.289062 5.234375 -7.125 C 5.554688 -6.96875 5.8125 -6.703125 6 -6.328125 C 6.195312 -5.953125 6.296875 -5.457031 6.296875 -4.84375 C 6.296875 -4.320312 6.222656 -3.8125 6.078125 -3.3125 L 6.1875 -3.3125 C 6.394531 -3.3125 6.597656 -3.367188 6.796875 -3.484375 C 6.992188 -3.597656 7.179688 -3.785156 7.359375 -4.046875 Z M 3.21875 -3.046875 C 3.457031 -3.046875 3.671875 -3.117188 3.859375 -3.265625 C 4.046875 -3.421875 4.191406 -3.601562 4.296875 -3.8125 C 4.410156 -4.019531 4.46875 -4.226562 4.46875 -4.4375 C 4.46875 -4.65625 4.398438 -4.835938 4.265625 -4.984375 C 4.140625 -5.140625 3.9375 -5.21875 3.65625 -5.21875 C 3.414062 -5.21875 3.207031 -5.148438 3.03125 -5.015625 C 2.851562 -4.878906 2.710938 -4.703125 2.609375 -4.484375 C 2.503906 -4.273438 2.453125 -4.0625 2.453125 -3.84375 C 2.453125 -3.632812 2.507812 -3.445312 2.625 -3.28125 C 2.738281 -3.125 2.9375 -3.046875 3.21875 -3.046875 Z M 3.21875 -3.046875 "/></g></g></g><g fill="#ffbd59" fill-opacity="1"><g transform="translate(66.301217, 24.857711)"><g><path d="M 7.21875 -3.390625 C 7.4375 -3.390625 7.609375 -3.242188 7.734375 -2.953125 C 7.867188 -2.660156 7.9375 -2.3125 7.9375 -1.90625 C 7.9375 -1.550781 7.878906 -1.179688 7.765625 -0.796875 C 7.648438 -0.410156 7.472656 -0.0507812 7.234375 0.28125 C 7.003906 0.613281 6.695312 0.882812 6.3125 1.09375 C 5.925781 1.300781 5.457031 1.40625 4.90625 1.40625 C 4.34375 1.40625 3.84375 1.285156 3.40625 1.046875 C 2.96875 0.804688 2.617188 0.484375 2.359375 0.078125 C 2.097656 -0.328125 1.941406 -0.796875 1.890625 -1.328125 C 1.847656 -1.859375 1.9375 -2.421875 2.15625 -3.015625 C 2.289062 -3.378906 2.410156 -3.726562 2.515625 -4.0625 C 2.617188 -4.394531 2.671875 -4.664062 2.671875 -4.875 C 2.671875 -4.976562 2.625 -5.128906 2.53125 -5.328125 C 2.445312 -5.535156 2.273438 -5.691406 2.015625 -5.796875 C 1.929688 -5.597656 1.820312 -5.363281 1.6875 -5.09375 C 1.5625 -4.832031 1.4375 -4.570312 1.3125 -4.3125 C 1.1875 -4.050781 1.082031 -3.835938 1 -3.671875 C 0.945312 -3.546875 0.851562 -3.5 0.71875 -3.53125 C 0.582031 -3.5625 0.46875 -3.628906 0.375 -3.734375 C 0.289062 -3.847656 0.28125 -3.953125 0.34375 -4.046875 C 0.476562 -4.242188 0.628906 -4.535156 0.796875 -4.921875 C 0.972656 -5.304688 1.125 -5.664062 1.25 -6 C 1.09375 -6.0625 0.96875 -6.148438 0.875 -6.265625 C 0.789062 -6.378906 0.75 -6.554688 0.75 -6.796875 C 0.75 -7.003906 0.796875 -7.207031 0.890625 -7.40625 C 0.984375 -7.613281 1.117188 -7.785156 1.296875 -7.921875 C 1.472656 -8.054688 1.679688 -8.125 1.921875 -8.125 C 2.304688 -8.125 2.679688 -8.070312 3.046875 -7.96875 C 3.410156 -7.863281 3.738281 -7.722656 4.03125 -7.546875 C 4.332031 -7.378906 4.570312 -7.191406 4.75 -6.984375 C 4.925781 -6.785156 5.015625 -6.585938 5.015625 -6.390625 C 5.015625 -6.109375 4.972656 -5.847656 4.890625 -5.609375 C 4.804688 -5.378906 4.710938 -5.140625 4.609375 -4.890625 C 4.515625 -4.640625 4.4375 -4.347656 4.375 -4.015625 C 4.300781 -3.523438 4.316406 -3.148438 4.421875 -2.890625 C 4.523438 -2.628906 4.675781 -2.453125 4.875 -2.359375 C 5.082031 -2.273438 5.289062 -2.234375 5.5 -2.234375 C 5.8125 -2.234375 6.046875 -2.289062 6.203125 -2.40625 C 6.367188 -2.519531 6.5 -2.648438 6.59375 -2.796875 C 6.6875 -2.953125 6.773438 -3.085938 6.859375 -3.203125 C 6.941406 -3.328125 7.0625 -3.390625 7.21875 -3.390625 Z M 7.21875 -3.390625 "/></g></g></g><g fill="#ffbd59" fill-opacity="1"><g transform="translate(74.33236, 24.857711)"><g/></g></g><g fill="#ffbd59" fill-opacity="1"><g transform="translate(79.637332, 24.857711)"><g><path d="M 1.703125 0 C 0.953125 0 0.535156 -0.332031 0.453125 -1 C 0.378906 -1.664062 0.695312 -2.679688 1.40625 -4.046875 C 1.664062 -4.554688 1.898438 -5.03125 2.109375 -5.46875 C 2.328125 -5.90625 2.503906 -6.320312 2.640625 -6.71875 C 2.722656 -6.957031 2.742188 -7.128906 2.703125 -7.234375 C 2.671875 -7.335938 2.601562 -7.398438 2.5 -7.421875 C 2.394531 -7.453125 2.285156 -7.472656 2.171875 -7.484375 C 2.066406 -7.492188 1.988281 -7.523438 1.9375 -7.578125 C 1.882812 -7.628906 1.882812 -7.734375 1.9375 -7.890625 C 1.988281 -8.054688 2.101562 -8.269531 2.28125 -8.53125 C 2.46875 -8.789062 2.691406 -9.0625 2.953125 -9.34375 C 3.222656 -9.632812 3.507812 -9.90625 3.8125 -10.15625 C 4.113281 -10.40625 4.410156 -10.609375 4.703125 -10.765625 C 4.992188 -10.921875 5.25 -11 5.46875 -11 C 5.726562 -11 5.890625 -10.882812 5.953125 -10.65625 C 6.023438 -10.4375 5.941406 -10.085938 5.703125 -9.609375 C 5.273438 -8.734375 4.925781 -7.910156 4.65625 -7.140625 C 4.394531 -6.367188 4.164062 -5.648438 3.96875 -4.984375 C 3.695312 -4.066406 3.5 -3.289062 3.375 -2.65625 C 3.25 -2.03125 3.132812 -1.519531 3.03125 -1.125 C 2.925781 -0.726562 2.773438 -0.441406 2.578125 -0.265625 C 2.390625 -0.0859375 2.097656 0 1.703125 0 Z M 1.703125 0 "/></g></g></g><g fill="#ffbd59" fill-opacity="1"><g transform="translate(84.279675, 24.857711)"><g/></g></g></svg>